<svg id="rough_hand-point-left" viewBox="0 0 52 52" xmlns="http://www.w3.org/2000/svg" width="150" height="150">
<style>
        path {
          stroke: #fff;
          fill: url(#hachure);
        }
      </style>

      <pattern id="hachure" x="0" y="0" width="60" height="60" patternUnits="userSpaceOnUse">
        <path style="stroke-opacity: 0.7; stroke-width: 0.4; fill: none; --darkreader-inline-fill:none;"
          d="M60 60C60 60 60 60 60 60M60 60C60 60 60 60 60 60M61.2 50C57.9 53.1 56.3 55.7 55.1 59.4M60.2 49.6C58.9 51.8 57.9 54 53.7 60.3M60.2 39.5C57.8 46.1 51.9 53.2 46.7 60.6M59 40.5C57.2 43.9 55.1 48.9 48.3 60.8M60.9 31.4C54.4 36.1 51.5 44.7 42.4 59.8M60.7 29.7C55.6 37.7 52.9 43.1 42.7 60.9M60.7 18.3C57.1 26.6 49.6 37.8 34.7 61.6M60.2 19.8C55.3 29.4 49.5 37.4 37.1 60.4M59.5 12.3C48.3 29.9 37 51 32.9 58.6M59.6 9.4C49.9 28.3 39.3 46.5 30.6 60M59.9 -1.3C49.3 18.4 41.2 33.2 25.7 60M59.2 0C50.4 18.9 39.2 36.5 26 59.5M57.1 -3.5C43.8 21.5 30.6 42.2 18.4 61.7M55 -1.9C46.7 15.4 36.3 31.2 20.3 59.4M48.6 -0.7C37.2 20.7 25.3 41.8 14.1 59.9M49.6 -1.4C42.1 11.8 33.9 27 13.4 59.3M43.3 -1.5C33.4 14.4 23.7 29.1 6.7 58.8M43.9 -1.6C33.7 16.2 23.4 32.2 8.3 60.6M36.3 -3.8C32.4 12 20.6 25 2 61.8M37.5 -1.4C27.7 17.6 17.3 34.9 3 59.7M32.8 -3.2C22.1 20.3 7.5 39 -3.8 60M32.7 -2.3C19.2 19.7 7.1 40.5 -2.3 58M27.5 -2C18.7 9.6 9.1 25.1 -4.1 47.2M26.1 -2.2C14.8 17.8 4.5 36.9 -3.3 49.2M23 -2.9C10.1 15.5 2.7 30.5 -3.1 39.1M20.8 -2.8C15.3 6.3 10.1 15.9 -2.7 39.3M15.7 -4.6C10.6 9.6 1.8 18.1 -0.7 26.8M15.7 -3.2C11.3 4.4 8.5 9.7 -2 28.3M9.2 -2.9C5 3.9 2.3 10.5 -3.2 16.6M9.5 -2.1C5.5 5.2 1 11.5 -3.3 18.5M4.4 -1.4C1.5 -0.1 0.8 4.6 -3.4 8.4M3.5 -2.3C2.3 1 0.2 3.9 -2.8 9.4"
          data-darkreader-inline-fill=""></path>
      </pattern>
  <title>hand-point-left</title>
  <path class="rough-outline" fill="none" d="M3.3 14.2M5.4 15.6C8.8 15.5 12.5 15.8 19.4 15.6M4.1 16C9.8 15.5 15.2 15.2 19 15.2M19.4 15.6C18.8 16.2 18.1 13.4 18 13.9M18.2 16.4C17.7 15.5 17.2 12.8 16.3 12.7M18 13.1C18 9.9 20.3 5.3 21.1 5.6M19.4 14.1C15.4 11.6 20.4 6.1 22 6.9M22.4 6.4C25.9 6.5 24.2 7.9 25.6 8.7M21.8 6.9C24 8.1 26.9 8 27.8 8.6M26.4 9.3C27.2 13.1 34 15.7 38.4 15.9M26.8 10.8C28.5 13.1 33.7 14.2 37.9 18.8M37.2 17C40 18.8 40.7 19.1 41.5 22.2M36.1 18.3C40.6 17.5 40.9 20.5 40.6 20.3M40 21.4C40 21.4 40 21.4 40 21.4M40 21.4C40 21.4 40 21.4 40 21.4M40.8 21.6C39.1 24.4 39.9 29.1 39.6 38.5M39.4 21.4C40.7 27 39.8 31.2 39.5 38.7M40 38.6C39.9 40.4 39 42 37.2 39.9M39.7 39.5C39.1 39.4 38.4 39.7 39.2 40M38 41C34 40.5 32.1 45 25.5 45.7M38.5 42.5C33.6 42.7 31.4 43.3 24.6 44M25.6 44.8C26.7 46 22.8 45.4 24.2 46.4M27.2 43.6C25.4 45.8 26.1 43.1 23.1 46.1M24 44.8C18.4 43.5 17.3 42.9 16.3 37.3M22.6 45C19.6 46 17.1 41.5 18 39.1M16.7 37.7C16.1 36 13.1 32.4 15.8 30.4M16.7 38.7C15.8 35.4 13 33.1 16.9 31.1M15.1 31.5C13.9 28.1 12.4 27.7 14 24.6M16.3 31.4C12.8 28.2 11.2 27.3 13.3 24.6M14.6 25C11 24.8 7.8 24.4 4.2 25.1M14.9 24.6C11.4 24.3 8.8 24.6 4.6 24.2M4.5 24.4C3.1 25.5 -0.7 21.9 -0.5 21.5M3.1 24.2C1.7 24 -1.8 21.3 -1.5 20.9M0 20C-1.3 16.4 3.5 16.5 4.3 17.1M-1.3 19.7C1.4 17.4 2 16.9 3.7 16.4M4.5 15.6C4.5 15.6 4.5 15.6 4.5 15.6M4.5 15.6C4.5 15.6 4.5 15.6 4.5 15.6M43.3 16.5M43.7 17.5C44.9 18 46.8 17.6 48.6 17.7M44.1 17.5C45.1 17.5 46.4 17.4 48.9 17.7M48.8 17.6C50.7 18.9 51.9 19.6 51.1 20.8M49.1 16.1C48.4 17 51.2 19.9 49.8 20.6M51.9 19.9C51.1 26 51.6 29.7 51.9 40.5M50.5 20.1C51.6 27.4 51.3 33.3 50.9 38.8M51.2 39.2C52.3 40.4 50.6 41.3 47.5 40.3M50 37.9C51.9 39 51.5 42.2 50.5 41M48.5 42C47.4 41.7 45.6 41.4 43.6 41.7M48.9 41.5C47.4 41.7 46.2 41.5 44 41.5M44 41.6C44.3 42.1 41.2 41.5 42.9 38.9M44.6 41.3C43.8 40.8 42.1 40.4 40.9 39.1M42.4 39.4C40.8 32.7 40.1 25.2 41 20.1M41.5 39.1C41.2 33.6 41.9 29.5 41 19.2M41.6 20C41.9 18.3 43.3 16.6 45 19.1M41.4 19.6C41 19.6 41.3 18.9 42.9 16.8M44 17.6C44 17.6 44 17.6 44 17.6M44 17.6C44 17.6 44 17.6 44 17.6M45.1 40.2M46.4 38.8C48.3 37.7 48.5 38.7 47.8 37.4M45 38.5C47.2 39.7 47.6 37.1 49.5 35.1M48.4 36.8C49.8 34.3 48.6 33.4 47.5 34.6M48.6 35.8C47.5 37.5 47.3 35.7 46 36M46.4 34.8C45.9 34.2 42.9 37.2 44.9 37.8M46 36C44.3 33.4 45.7 36.2 45.2 35.1M44.4 36.8C44.1 39 45.6 40.3 47.4 39.2M45.3 38C44.3 37.2 45.8 39.9 47.3 37.1M46.4 38.8C46.4 38.8 46.4 38.8 46.4 38.8M46.4 38.8C46.4 38.8 46.4 38.8 46.4 38.8"></path>
  <path class="rough-mask" stroke="none" d="M4.5 15.6h14.9c-0.6 -0.8 -1.1 -1.7 -1.4 -2.5C16.6 9.9 19 6.4 22.4 6.4c1.9 0 3.2 1.1 4 2.9 1.2 2.8 7.9 6.4 10.8 7.7 1.8 0.8 2.8 2.5 2.8 4.4l0 0v17.2c0 1.2 -0.9 2.2 -2 2.4 -4.7 0.7 -6.2 3.8 -12.4 3.8 -0.3 0 -1.3 0 -1.6 0 -5.1 0 -8.2 -2.2 -7.3 -7.1 -1.9 -0.9 -3.1 -3.9 -1.6 -6.2 -2.5 -2.1 -2.3 -5.4 -0.6 -7.1H4.5c-2.4 0 -4.5 -2 -4.5 -4.4 0 -2.3 2.1 -4.4 4.5 -4.4zM44 17.6h4.8c1.3 0 2.4 1.1 2.4 2.4v19.2c0 1.3 -1.1 2.4 -2.4 2.4h-4.8c-1.3 0 -2.4 -1.1 -2.4 -2.4V20c0 -1.3 1.1 -2.4 2.4 -2.4zm2.4 21.2c1.1 0 2 -0.9 2 -2s-0.9 -2 -2 -2 -2 0.9 -2 2 0.9 2 2 2z"></path>
</svg>