<svg id="rough_window" viewBox="130 0 925 925" xmlns="http://www.w3.org/2000/svg" width="925" height="925">
<g><path d="M139.9562679806876 10.09378361806327 C139.9562679806876 10.09378361806327, 139.9562679806876 10.09378361806327, 139.9562679806876 10.09378361806327 M139.9562679806876 10.09378361806327 C139.9562679806876 10.09378361806327, 139.9562679806876 10.09378361806327, 139.9562679806876 10.09378361806327 M131.1323940299853 140.743318596643 C141.02869642351322 96.71046119989711, 182.65797901631197 72.96391483754044, 188.9562857097401 9.225581364120245 M132.77987253954623 129.10657607367511 C157.8094418204629 94.38873868989303, 171.23930190809554 60.660957060019655, 194.73026578364667 2.4583993962625925 M127.95603160194757 254.01195989624122 C165.7999439124668 189.0877752484198, 190.29413463322777 137.89085187379436, 249.93429223524868 3.9133013815386306 M141.79193326594617 247.6525789681458 C174.12577249168206 173.31086182216444, 221.78453870992075 94.29265200331021, 254.13914291085698 12.656173967688051 M141.96457343238583 364.80922803450386 C178.8542163580917 271.07352649753966, 226.60996308060987 186.06461973095813, 300.1948606872655 16.37874433021635 M143.98103638323042 369.0298239254395 C185.07456592453337 284.9812160498778, 211.9453418829428 217.35856725044334, 308.765665972617 6.503078088534684 M139.3116722038156 483.5636938707112 C220.4668677356649 311.23588850363336, 307.86786364214845 143.39066374085007, 366.4234087721289 15.349522481148934 M136.89278775795032 481.6746766390779 C198.08563801088843 370.56040909736186, 250.90272934288245 266.102213087554, 360.64806919180705 8.148101574950903 M137.16416736938942 596.2085407638228 C186.6688071276347 462.54919624750517, 246.21780221227607 323.8112201932474, 420.3598102875109 5.0469901379654 M139.0079400766758 599.1735126542917 C208.98737799064475 480.9892048142384, 264.2790112353086 355.14067669026963, 418.5361675062047 10.493081343086736 M146.09714070527053 717.0084045038893 C233.38480717470281 484.30538927433844, 341.71537268241354 247.408899951038, 467.65170408338554 5.851885807961293 M139.05732970115668 722.0678528075648 C265.0974099022876 450.177028879408, 385.1597396989231 188.54443750072878, 473.62009041872165 11.214932130592688 M140.4972340228852 833.7444590836803 C246.81904564188272 604.2635908758186, 362.6497449893362 367.4076922130578, 531.865942306011 13.231980814640451 M137.10524404948504 835.6279587519919 C266.0237880004557 562.854317079687, 393.16707795193037 296.151930672795, 529.2284086266089 8.314092994784776 M151.90612351910008 922.6828976224456 C257.3400350852734 726.3227619487891, 343.3378163109628 535.2689267839405, 580.0087519628659 6.339496135407478 M160.78330739195556 916.3396111465313 C279.84396621674944 708.4670703198815, 387.18159468923625 480.2958298366353, 578.3279981113208 7.083758612879363 M207.67890931803004 916.350412942214 C325.96020546488546 661.7635152052127, 447.64182181851004 416.9829437011357, 641.8866867091882 10.790127516251431 M214.07142538997303 918.9754690737631 C341.5149071386837 576.7482838313075, 492.7300114810781 252.95342363715417, 638.4284392555861 7.703536871514767 M267.4371952471903 914.1073458516446 C356.8597618180558 688.4748240514904, 467.4791357555958 440.89463805596426, 687.859066881028 3.9076528050220674 M268.96407503892846 917.2752597739462 C360.6185932525515 711.1398471491837, 450.97873695487755 515.2394981468578, 693.4871379151047 12.034033847885281 M318.2547179732614 924.76191131611 C466.5592753660777 622.8618325712459, 612.2670711865968 321.3480879705383, 751.1031709066327 11.777502944265947 M321.0031246044487 920.5065150594106 C483.5944424917724 576.9834644599453, 647.7446941274575 230.23437470331945, 749.8869546695049 9.022800523576954 M372.8090002533406 915.3938229210944 C498.86238059145063 618.0518271209323, 649.8860162607529 304.50088420095324, 800.1068397841449 4.6361620654026945 M375.46796633071835 917.592841467217 C508.7812492774764 630.6865939153868, 642.2221749510454 342.3438236639694, 802.940087009512 8.417171546172101 M431.67134512313305 921.0654733680102 C588.9971156522848 644.1396976596434, 721.5249550222383 362.93467418456316, 856.2867156073546 6.151319775412401 M431.01104174941236 921.3939222118524 C560.0564602191553 648.8574676694734, 685.6910232900143 382.2707737683906, 859.7401100520232 11.206503845687397 M489.33761317245256 916.2676312158029 C617.3231940059453 665.3249865832324, 740.6500285129327 397.2684870358791, 914.379676471807 5.176634869133545 M486.1075840883729 918.5178473535233 C583.0503796131842 714.9738095147143, 684.147606945528 503.8484144594716, 915.5138103631879 10.538347637146618 M542.389895094616 921.3671099466601 C665.2137905862897 607.1000961045999, 802.6283803194309 290.428409730895, 970.562019778991 7.929725763246506 M544.6315332688359 919.7356551833074 C727.7827917240244 575.4115691212126, 879.3541476316419 242.51246215529883, 966.1383331218312 11.431968263961046 M602.4772351822656 916.7466669147235 C778.495097017445 542.0094307181959, 940.0614615155214 194.32224917913123, 1017.8035934833093 8.726341185395906 M598.5646364844807 916.824774312494 C744.0905254266112 626.289097958094, 879.4620460925828 339.19058582253365, 1020.0244198903126 7.275994868870724 M656.4299176105013 919.0419320389396 C760.3749887101759 644.5469200005549, 887.6707026104676 366.5106394654663, 1068.5531364610536 30.333959694751538 M652.6720352691949 917.8967809189926 C761.2010457746055 627.8617383007128, 886.8425043893928 343.77314956214786, 1071.0217212733762 26.231947161827264 M706.415791147185 915.1908418085593 C806.0966578184818 734.2421661956612, 890.5186260823868 547.8087622603164, 1071.8839394436964 139.48053819688815 M708.3720004440203 916.3128355422981 C809.1458319150299 674.0239140702594, 927.5615389450777 417.99256751404084, 1072.9755644890781 141.25254403052017 M764.8049634573448 916.5500333022869 C863.0665986584855 678.7638535882396, 979.8081769023677 434.51381134160835, 1069.6810436859196 263.77897339660876 M765.1792070179532 915.9147985933845 C873.0756125569089 679.2114694917406, 986.5661207156634 435.25270949070097, 1069.8557550379767 260.1115208188581 M824.6040361275558 923.6503198424045 C918.015088257394 701.1701665439192, 1011.8425439973378 497.06479334321455, 1076.7139730999904 379.5545264732392 M822.6763730389987 919.4634090302228 C929.7003066384219 728.1209448009308, 1017.0684678692369 532.4041673618555, 1070.7523019602652 381.75380509669833 M878.596698463279 920.9203716917622 C935.8279730602186 784.5193275760563, 995.7378285903603 634.1248285812342, 1064.3018215713923 497.80428511172437 M878.8000550880956 916.151056230903 C949.2854168676055 748.1618758830606, 1022.7180745757782 581.6022474252153, 1074.3387711879939 497.982298720387 M934.3176220393789 917.3813530417738 C983.5574227827682 832.4757240001534, 1024.74585956093 741.8952708447747, 1074.0892451824848 614.7631412401504 M930.9560427310463 922.0116235326468 C981.8138631802964 825.8471186071486, 1027.960668694517 733.4756973282805, 1070.6412779288657 621.2930279072514 M985.6898986817295 907.2599777284997 C1010.3875615091218 850.496721759108, 1027.434833992234 804.2261588097684, 1057.7584760282473 724.2886500014457 M986.2695905043836 922.0095783344038 C1037.943861655876 848.2556366589024, 1057.6726655079406 771.6539735148394, 1068.3688971699187 729.5371861474129" stroke="white" stroke-width="1.5" fill="none">
</path>
</g>
<g>
<path d="M139.80241584611505 10.227294568396744 C139.80241584611505 10.227294568396744, 139.80241584611505 10.227294568396744, 139.80241584611505 10.227294568396744 M139.80241584611505 10.227294568396744 C139.80241584611505 10.227294568396744, 139.80241584611505 10.227294568396744, 139.80241584611505 10.227294568396744 M140.31834538380582 67.84099884939724 C167.65341036248458 44.918793101529324, 160.96825990645135 18.44727257102379, 186.209500091976 19.39140296323351 M137.7569384917215 50.8725783777351 C156.34075901614108 44.72493264103065, 175.66670732742114 22.788259591417866, 175.94779300559844 7.959142916118996 M152.1352970211055 114.97014551571566 C146.09561979331164 90.70077891271758, 186.4053878187916 44.689048066070285, 207.72287488088676 20.03551658040559 M134.5555033387855 105.15035672981926 C164.46145290123272 70.9004765066198, 190.17244657266073 30.975695717401887, 221.6851631729828 9.15897556243971 M136.055917053442 148.59069475535097 C193.91780766830576 100.19412698472203, 229.879876511699 59.98805819744906, 248.72168695124668 4.372188007175275 M140.81625804435998 145.70886770034951 C185.90118065044703 104.30920085700244, 217.35996482832195 68.3651084863845, 263.95343695755514 12.360370033046841 M132.18920257691988 201.50871147094222 C201.93696128320025 135.0071931355996, 253.98716771516192 43.302455189947636, 292.2706735803641 -2.3428317926060966 M138.72721548008653 191.2572627853692 C176.1188803465765 143.46966874785608, 232.69014924398377 77.32413848671439, 301.9933634484169 13.858444290826768 M146.87778332597532 235.2783250395164 C234.76629352602967 147.5013455008625, 308.78672233465403 57.57156803677321, 347.35862075043656 19.531947175917207 M138.62848336730892 240.85120678586253 C209.41950324613418 169.362776674541, 281.3729786338448 88.64095190092652, 341.1201155488959 6.3096936895345745 M133.40901275865326 289.66912215746447 C193.0313002263187 223.54718563292155, 236.29102479141926 157.44157842288476, 377.63492793337946 0.9831280663790523 M144.68398117736552 287.9653876080567 C180.77019943635761 225.70503022362362, 239.70928263836888 167.8219240605503, 378.81414800128874 9.813106601125497 M132.32596899012313 337.0090535192754 C221.9261536717024 224.83737073386953, 335.6801250795737 105.69019870726903, 417.37726598015047 6.165893451964067 M143.97866370204187 327.8368984283717 C237.3067172770791 199.321502126824, 341.8371979176187 80.27549611509494, 416.7251279025424 5.705800007935454 M145.6974133645784 374.3241453765854 C267.3544173690372 240.32996382009892, 389.9332443436243 103.4944928210091, 462.1065577669633 3.681654232871452 M138.71873729603607 376.97589369667577 C224.99005537456674 289.31311942817473, 293.4634291660891 202.25565633544508, 456.88801332854626 7.491975546782571 M141.09461583790122 415.1072995309832 C204.5882309335181 338.7765204639773, 291.3825246308516 244.80729534388138, 502.99272672612256 9.90924880257277 M138.90050844293705 418.43537934518645 C219.46284566964306 318.1104253592024, 301.43906728213824 232.37705023363148, 500.4010203305638 12.236711461466005 M139.63779432912972 471.5497648366162 C228.35330734606524 356.8715196532576, 324.44442383777465 237.2536654292065, 532.505945996242 7.18470856834511 M137.0083392595195 464.4096255422464 C243.99600602758844 347.65635790559924, 355.9269957772276 215.79131418054814, 535.371438043735 10.725641342955925 M143.22022228351415 517.0472709430225 C331.1813252884607 322.1394076671825, 504.40009115877297 132.61453705320966, 577.4533626497531 13.728340690272793 M139.0629328890923 510.5490118717185 C248.5289969893865 360.82918254142334, 378.527308625604 217.9231012257303, 579.8964307865717 11.862349048679217 M137.2311064791584 564.6086661844108 C252.56285101503883 445.83194828776845, 348.0013401928194 331.72463249289547, 610.9331096016582 7.9516140017245025 M136.96945007705006 555.8982370160243 C322.717154235627 341.75719030665573, 507.1062760844483 121.16675472692289, 614.9264270418765 12.063412779693879 M143.92647619329426 606.594631101426 C280.86830249723266 434.5508460047169, 424.8001340568746 268.4650180245576, 661.8250005895642 5.731999776935416 M142.9690092697041 606.5116224061526 C311.6432487263709 423.568957819481, 480.31138366834267 226.64511078730854, 658.157112166169 12.511907835495098 M145.36082566507972 654.8780358451879 C363.84089526570904 395.9832617160335, 568.6258325557704 153.93537619719257, 691.3274789976471 5.405041786332995 M142.50796411104196 651.9935972612519 C268.5835963959962 488.3304521558386, 400.0881088189042 338.8101021045038, 696.6647058586176 11.162749471637774 M142.27158012410203 693.7408550173316 C271.9031586744683 534.8837744463332, 399.22318743230886 370.74526099696624, 738.0080829811134 6.479594410126071 M139.68694061320818 694.7111139284083 C362.8461243560195 458.0458436243886, 559.7471211105072 228.83849618732128, 733.0550039616506 13.208394362075863 M139.9976792742328 747.8125997034914 C284.2208506983172 587.1126685315851, 419.2164568510818 436.6132830367378, 772.0424151035717 5.052918257148664 M138.48650462316553 740.2321921708141 C293.978743044801 561.1496849235688, 450.7889590817538 379.97710010172227, 775.4587736424148 8.288424144690985 M137.0148898404537 782.1748651833898 C351.50817095200057 555.1484138905482, 564.6081995282777 314.02289837004827, 820.4593495199011 4.323462635538553 M140.05967919955552 784.8764497499706 C377.9664549633311 503.8414360610859, 636.0062595791628 210.76471357349433, 818.9414070197283 12.15361659448366 M141.84128787335723 829.0910002954713 C369.74545550838485 604.8780457806712, 583.0933921515012 358.5485320465405, 860.8725629612312 15.370480392350657 M137.95896135466543 835.3224111935424 C371.48351070734407 570.1016974516854, 589.493296051139 320.0972209512526, 857.798221098053 8.867097633269603 M139.8768981087638 877.7466271198433 C335.5154187860543 625.0860527067446, 541.6028966981683 393.32738601177107, 894.0336012355078 3.8004820878515595 M141.9147753385845 876.1223943689308 C386.71061075336814 565.6853088377248, 652.434800516867 264.76910935856336, 898.1038962324235 6.803232452409587 M152.22707878407334 915.970882133125 C355.40565071770834 705.0205028876949, 541.8273989606384 480.60073372991786, 941.27166693206 10.194966854373021 M144.16907603098107 914.2836473341774 C466.3724499371862 567.1840671063247, 778.1103175206154 214.74076538475273, 932.7695285434055 8.774855761850102 M188.39562437966285 920.8673994632334 C476.7864211727823 620.211114625383, 736.7936708430705 319.2684294314305, 972.3996949538066 14.938513740463756 M188.94612747962148 915.4557785236972 C490.0457980797175 554.7607442058837, 802.6455138215808 197.08081721441275, 972.9569258005663 6.852169157271595 M230.24098877218063 910.6517204519331 C490.46907120471394 632.5086087382923, 753.1671529559308 336.4409914576242, 1009.1406725611305 9.77009153171215 M227.04600268790537 915.6445480094629 C411.6102883310372 693.345408583494, 621.4126489710402 452.61033866818764, 1016.2192466295692 11.394539808002374 M267.6270613232692 922.8734956060119 C477.40502093923226 680.0335892764501, 688.8778551867865 439.27483461924515, 1051.4535637261638 11.263628137114562 M265.98095860254466 917.2018513932157 C503.4677559850414 602.7263796586825, 758.8664692629745 306.372518608587, 1046.5140279020782 18.316811456104002 M306.23907076387405 915.4227130340091 C572.9637158241702 606.7610257623928, 834.9025210239892 307.2922448308084, 1043.1778348980617 69.2513310314743 M308.6419339758305 916.0562265388462 C510.9327830169855 646.8719287803588, 725.270153991803 400.9618200551092, 1050.5283937472398 60.44571589922098 M342.08787265429095 910.919949222406 C538.9237767103574 664.6337946300284, 735.2469673965119 433.73773256413114, 1048.2443322711645 114.04619303033381 M347.99279377111696 916.515381329307 C488.2560445779744 757.5109697429775, 633.7541702799477 592.0168067022815, 1045.4132735070143 110.25823562634048 M388.5314245251527 919.7403019713969 C555.0851214583504 720.1012186376435, 706.0876236129926 543.4085320651361, 1047.16643062618 154.83440518976408 M387.43784403750766 917.5456898781921 C648.5326260869049 629.5692842131615, 909.3606170184573 328.44566547674293, 1050.6853313270653 157.1505424898711 M431.17601595573285 917.2255260765178 C654.5458994261546 643.142081225551, 880.0852931570894 370.8891533254589, 1053.9433800193483 196.94157012611265 M426.5829048091868 913.84742277418 C631.3055261861749 665.1968950024545, 833.7870570687978 424.3965999010592, 1047.8043829010255 199.1532826191081 M470.1785633509268 912.4842082452618 C670.7656764174648 697.147937481437, 856.6898026365436 475.1783428636196, 1049.6772950261864 241.98358451143034 M464.14681651114796 917.2206687125214 C691.3163156832156 651.8236329064264, 908.349875918622 397.53605434879057, 1050.2822301456379 246.4528673413834 M506.96516139818294 913.7630501731287 C673.9115468206128 730.4328582246276, 837.6792048447412 552.5875417643504, 1042.3461925090403 296.1105727943654 M503.80994789586816 915.1924349071139 C660.296745471876 759.4611274715687, 807.1585338403889 594.3514358529778, 1046.1707147362806 294.33534741524755 M544.50329478004 920.8374154431137 C663.0748763684464 784.9343948739303, 763.1165909616967 658.5613340819252, 1051.2230354277247 333.97524403773053 M544.5278431781014 915.996289662919 C651.9544924136683 782.338390612542, 771.1244193839635 640.4386182369564, 1048.048909262713 339.988465598533 M584.2943964238696 921.247856964842 C717.6332473006172 769.433025640903, 836.6676369308351 630.4692375124012, 1045.068008899337 387.1834899623864 M583.2182863996682 916.7423345824606 C692.2175581126688 768.7991904716143, 817.8750237254307 629.922175820128, 1049.8714147056944 381.85003080839067 M625.3966796534767 920.282167713581 C735.9256395547733 782.6157231128116, 853.4219756544396 647.9442931302044, 1053.3790029737768 429.3293451742087 M625.6245787896169 919.445675431878 C708.0910233525453 802.1837153021131, 799.8905803554628 693.422769012919, 1049.9196486410108 428.6671200819524 M660.1284168257641 920.7732386552938 C765.916519731769 795.6677730567349, 871.2842811970822 668.1542028657494, 1048.6037519555998 478.71477179098156 M661.1580510863885 915.5368277321224 C789.8016767840019 751.1448827960464, 929.9438431359031 595.592545583469, 1047.968929010861 474.7119828421572 M702.3369782568876 921.7801411231227 C798.1286865358713 822.7293702414948, 889.269691901242 729.2517699989771, 1046.5464836858564 523.0363831057055 M705.2916993578657 915.3259348827332 C789.417187870238 806.5686081830096, 886.7943589320496 691.1435154435533, 1046.9695770316112 522.9865637403927 M740.1431274998631 916.729824141935 C839.7990611736309 819.2210882900794, 924.0694889385368 727.4152097312432, 1055.4813625617076 560.1836695509315 M746.0685499239449 917.0178148369062 C813.9947091769569 823.8343235442842, 887.4355970906321 740.4715220522198, 1051.2342013967914 566.5046866848288 M774.2327678373806 908.2154701059096 C841.4947966443043 833.942467871362, 922.6656396744612 742.7751826807602, 1041.91340942782 602.9869297272252 M784.8466200282994 915.5417270830756 C831.039181925916 859.5487056758902, 893.4676835876784 786.4999468325564, 1049.7158775114478 614.0334190739444 M830.7302290236928 917.0480559777309 C887.1423931351526 855.5609805275388, 945.0422164888324 773.5722162289793, 1042.6579840188836 660.3981359100567 M826.7580834279491 912.7568723688019 C914.67555055739 825.3685946585731, 989.5866646524497 735.024180476514, 1043.489332746635 661.0568812373187 M858.7398170652968 910.6221002370191 C939.0245876818562 841.1923700410715, 1013.1379114407154 759.626010435938, 1047.4418297819398 712.4615916955934 M861.315535929444 918.9463676525711 C915.3609246393332 844.1034975213771, 974.159495579725 777.7512946358656, 1042.7701378737054 707.8368906556532 M907.7423334968669 916.8066809626486 C930.9853709206922 868.4341731454199, 964.6578266086252 807.121602438509, 1035.3100411245925 735.5590298508781 M907.0872854625658 922.2720421022976 C953.9953928451698 859.9712323553651, 1004.2124521873903 815.4512278365729, 1045.0352793912027 752.6930575373575 M935.7369250377562 905.1280165990629 C974.5041668617561 880.9051775698234, 974.6482254001556 868.3402136709575, 1054.1494112785883 808.0201192930848 M946.3657348077173 915.5999649728743 C982.8612329351594 880.2776154400474, 1003.2050920419562 849.6720335686562, 1049.8619493353592 795.6532537829806 M989.7528873563765 921.9693276312065 C995.6609167200107 892.3102129381107, 989.5143643145627 897.569485900989, 1039.1848360473339 842.3076427593699 M990.0626247896971 919.0580302295011 C999.936427934312 888.4603042751027, 1031.7953891248717 852.5017383675904, 1049.363788208855 834.026146995367 M1012.602906261045 919.4405481175883 C1019.7303777043037 909.0903542405163, 1032.6457260686589 880.4110906730755, 1044.2413553487722 891.6621585723943 M1014.1692649405926 917.3245312765104 C1030.8918010192574 905.0794400247066, 1032.4457218768566 896.4058175995334, 1049.404317557051 883.5061573015464" stroke="none" stroke-width="4.5" fill="none"></path><path d="M134.14791303110886 6.060608289075409 C408.2978620714825 39.88523373890386, 684.9603753726499 43.12597246431739, 1041.2389069132494 6.378203240896283 M1043.2512188604444 6.718352468606568 C1040.9357283733746 355.8261009832216, 1038.4045680140512 717.7750486874713, 1033.8796781209912 905.0397215168588 M1046.1698021397408 907.1679789041464 C788.3329626400321 892.5316032023477, 539.1203600385439 891.2207890919137, 137.21782077609882 914.4694753339982 M133.997031774802 911.0355548648338 C160.00609370445343 602.664842136359, 168.58419343774872 288.27946849591336, 145.02225867360855 15.585027292088435" stroke="white" stroke-width="9" fill="none">
</path>
</g>
</svg>