<svg id="rough_arrow-circle-left" viewBox="0 0 52 52" xmlns="http://www.w3.org/2000/svg" width="150" height="150">
<style>
        path {
          stroke: #fff;
          fill: url(#hachure);
        }
      </style>

      <pattern id="hachure" x="0" y="0" width="60" height="60" patternUnits="userSpaceOnUse">
        <path style="stroke-opacity: 0.7; stroke-width: 0.4; fill: none; --darkreader-inline-fill:none;"
          d="M60 60C60 60 60 60 60 60M60 60C60 60 60 60 60 60M61.2 50C57.9 53.1 56.3 55.7 55.1 59.4M60.2 49.6C58.9 51.8 57.9 54 53.7 60.3M60.2 39.5C57.8 46.1 51.9 53.2 46.7 60.6M59 40.5C57.2 43.9 55.1 48.9 48.3 60.8M60.9 31.4C54.4 36.1 51.5 44.7 42.4 59.8M60.7 29.7C55.6 37.7 52.9 43.1 42.7 60.9M60.7 18.3C57.1 26.6 49.6 37.8 34.7 61.6M60.2 19.8C55.3 29.4 49.5 37.4 37.1 60.4M59.5 12.3C48.3 29.9 37 51 32.9 58.6M59.6 9.4C49.9 28.3 39.3 46.5 30.6 60M59.9 -1.3C49.3 18.4 41.2 33.2 25.7 60M59.2 0C50.4 18.9 39.2 36.5 26 59.5M57.1 -3.5C43.8 21.5 30.6 42.2 18.4 61.7M55 -1.9C46.7 15.4 36.3 31.2 20.3 59.4M48.6 -0.7C37.2 20.7 25.3 41.8 14.1 59.9M49.6 -1.4C42.1 11.8 33.9 27 13.4 59.3M43.3 -1.5C33.4 14.4 23.7 29.1 6.7 58.8M43.9 -1.6C33.7 16.2 23.4 32.2 8.3 60.6M36.3 -3.8C32.4 12 20.6 25 2 61.8M37.5 -1.4C27.7 17.6 17.3 34.9 3 59.7M32.8 -3.2C22.1 20.3 7.5 39 -3.8 60M32.7 -2.3C19.2 19.7 7.1 40.5 -2.3 58M27.5 -2C18.7 9.6 9.1 25.1 -4.1 47.2M26.1 -2.2C14.8 17.8 4.5 36.9 -3.3 49.2M23 -2.9C10.1 15.5 2.7 30.5 -3.1 39.1M20.8 -2.8C15.3 6.3 10.1 15.9 -2.7 39.3M15.7 -4.6C10.6 9.6 1.8 18.1 -0.7 26.8M15.7 -3.2C11.3 4.4 8.5 9.7 -2 28.3M9.2 -2.9C5 3.9 2.3 10.5 -3.2 16.6M9.5 -2.1C5.5 5.2 1 11.5 -3.3 18.5M4.4 -1.4C1.5 -0.1 0.8 4.6 -3.4 8.4M3.5 -2.3C2.3 1 0.2 3.9 -2.8 9.4"
          data-darkreader-inline-fill=""></path>
      </pattern>
  <title>arrow-circle-left</title>
  <path class="rough-outline" fill="none" d="M24.2 50.5M25.6 50.4C12.9 49.5 -0.1 38.6 1.4 24M24.4 49.6C10.5 49 -0.5 40.8 2.2 26.8M0.8 25.6C1 12.6 11.7 1.8 24.1 1.7M0.1 26.8C1.4 12.7 10.9 -0.2 25.2 0.4M25.6 0.8C40.4 0.1 50 10.9 48.8 26.5M24.1 1C38.1 1 49 11.6 49.5 26.7M50.4 25.6C51.2 38.8 38.3 49.9 25.6 50.5M51.6 24.8C50.2 39.6 38.5 50.5 26 49M25.6 50.4C25.6 50.4 25.6 50.4 25.6 50.4M25.6 50.4C25.6 50.4 25.6 50.4 25.6 50.4M27.9 35.4M28.3 36.3C26.4 33.7 22.4 30.2 20.4 28M28.9 35.8C26.7 34.2 25.3 33.1 20.6 28.5M21.5 28.9C27.1 28.9 31.2 27.6 39.8 30.1M20.6 28.7C27.8 28.7 34.4 28.6 39.3 29.2M39.2 28.8C41.1 30 40.9 27.3 41.3 26.4M39.8 29.7C39.8 29.3 41.4 29.1 40.5 26.4M41.6 26.5C41.5 25.9 41.7 25.4 41.5 24.9M41.6 26.4C41.7 25.9 41.6 25.4 41.6 24.8M41.6 24.8C40.7 22 41 23 38.2 23M41.4 25.6C40.1 24.6 41.2 23.7 39.8 21.6M38.5 21.6C35.1 22.4 29.3 23 19.5 22.2M39.8 23.1C34.2 22.2 27.6 21.8 20.9 22.3M20.6 22.2C23.4 20.1 25.1 18.5 28.4 15.2M21.1 22.3C22.3 21 24.3 18.9 28.5 15.5M28.5 15.2C28.7 14.4 31 13 29.2 12.7M27.1 14.1C28.6 13.9 27.9 12.7 30.2 13.4M28.5 11.9C28.2 11.6 27.9 11.4 27.4 10.8M28.5 11.8C28.1 11.5 27.8 11.1 27.4 10.7M27.4 10.7C26.6 8.7 24.9 9.2 23.8 9.2M28.5 10C27.7 11.6 26 11.5 25.8 11M22.8 9.3C20.7 13.2 16 16 11.1 23.2M23.3 10.8C21.3 13.6 18.8 16.5 11.4 24.2M10.8 23.9C9.2 24.8 11.1 26.9 9.8 27.2M9.9 23.7C8.2 25 10.3 27.8 11.8 28.4M12.1 26.2C16.4 30.7 18 36.9 23.2 41.7M10.9 26.7C16.2 32.6 20.2 36.4 24.7 41.1M24.1 40.6C25.1 41.1 26.2 41.4 27.7 39.5M25.5 41.7C26.1 42.7 28.2 40.3 27.9 42.3M27.5 40.6C27.9 40.3 28.2 39.7 28.6 39.6M27.4 40.6C27.8 40.2 28.1 40 28.6 39.5M28.6 39.5C29.7 40.1 29.3 38.1 29.2 35.9M29.7 38.2C27.9 37 28 36.2 27.6 34.5M28.6 36.1C28.6 36.1 28.5 36 28.5 36M28.6 36.1C28.6 36.1 28.5 36 28.5 36"></path>
  <path class="rough-mask" stroke="none" d="M25.6 50.4C11.9 50.4 0.8 39.3 0.8 25.6S11.9 0.8 25.6 0.8s24.8 11.1 24.8 24.8 -11.1 24.8 -24.8 24.8zm2.9 -14.4L20.9 28.8H39.2c1.3 0 2.4 -1.1 2.4 -2.4v-1.6c0 -1.3 -1.1 -2.4 -2.4 -2.4H20.9l7.6 -7.2c1 -0.9 1 -2.5 0 -3.4l-1.1 -1.1c-0.9 -0.9 -2.5 -0.9 -3.4 0L10.8 23.9c-0.9 0.9 -0.9 2.5 0 3.4l13.3 13.3c0.9 0.9 2.5 0.9 3.4 0l1.1 -1.1c1 -1 0.9 -2.5 0 -3.4z"></path>
</svg>