<svg id="rough_paint-brush" viewBox="0 0 52 52" xmlns="http://www.w3.org/2000/svg" width="150" height="150">
      <style>
        path {
          stroke: #fff;
          fill: url(#hachure);
        }
      </style>

      <pattern id="hachure" x="0" y="0" width="60" height="60" patternUnits="userSpaceOnUse">
        <path style="stroke-opacity: 0.7; stroke-width: 0.4; fill: none; --darkreader-inline-fill:none;"
          d="M60 60C60 60 60 60 60 60M60 60C60 60 60 60 60 60M61.2 50C57.9 53.1 56.3 55.7 55.1 59.4M60.2 49.6C58.9 51.8 57.9 54 53.7 60.3M60.2 39.5C57.8 46.1 51.9 53.2 46.7 60.6M59 40.5C57.2 43.9 55.1 48.9 48.3 60.8M60.9 31.4C54.4 36.1 51.5 44.7 42.4 59.8M60.7 29.7C55.6 37.7 52.9 43.1 42.7 60.9M60.7 18.3C57.1 26.6 49.6 37.8 34.7 61.6M60.2 19.8C55.3 29.4 49.5 37.4 37.1 60.4M59.5 12.3C48.3 29.9 37 51 32.9 58.6M59.6 9.4C49.9 28.3 39.3 46.5 30.6 60M59.9 -1.3C49.3 18.4 41.2 33.2 25.7 60M59.2 0C50.4 18.9 39.2 36.5 26 59.5M57.1 -3.5C43.8 21.5 30.6 42.2 18.4 61.7M55 -1.9C46.7 15.4 36.3 31.2 20.3 59.4M48.6 -0.7C37.2 20.7 25.3 41.8 14.1 59.9M49.6 -1.4C42.1 11.8 33.9 27 13.4 59.3M43.3 -1.5C33.4 14.4 23.7 29.1 6.7 58.8M43.9 -1.6C33.7 16.2 23.4 32.2 8.3 60.6M36.3 -3.8C32.4 12 20.6 25 2 61.8M37.5 -1.4C27.7 17.6 17.3 34.9 3 59.7M32.8 -3.2C22.1 20.3 7.5 39 -3.8 60M32.7 -2.3C19.2 19.7 7.1 40.5 -2.3 58M27.5 -2C18.7 9.6 9.1 25.1 -4.1 47.2M26.1 -2.2C14.8 17.8 4.5 36.9 -3.3 49.2M23 -2.9C10.1 15.5 2.7 30.5 -3.1 39.1M20.8 -2.8C15.3 6.3 10.1 15.9 -2.7 39.3M15.7 -4.6C10.6 9.6 1.8 18.1 -0.7 26.8M15.7 -3.2C11.3 4.4 8.5 9.7 -2 28.3M9.2 -2.9C5 3.9 2.3 10.5 -3.2 16.6M9.5 -2.1C5.5 5.2 1 11.5 -3.3 18.5M4.4 -1.4C1.5 -0.1 0.8 4.6 -3.4 8.4M3.5 -2.3C2.3 1 0.2 3.9 -2.8 9.4"
          data-darkreader-inline-fill=""></path>
      </pattern>
      <title>paint-brush</title>
      <path class="rough-outline" fill="none"
        d="M15.7 32M16.7 30.9C14.2 30.1 10.5 31.2 5.9 38.8M17.9 32.3C12.9 31.3 10.3 30.9 7.7 39.2M7 38.1C6.7 39 5.7 39.6 6.7 38.6M6.2 38.7C6.9 37.2 7.1 40.8 4.3 37.3M5.5 39.1C5.5 39.6 2 34.9 -0.9 37M6.4 38.5C3.8 39.2 1 34.7 0.6 35.5M0 35.7C0.7 43.1 4.9 50.6 13.9 52.4M-0.5 34.6C0.3 45 4 49.7 14.4 52.3M12.8 51.2C19.5 50.2 26.4 46.4 24.5 39.8M14.2 49.9C20.4 52.3 24.5 45.7 27.1 40M25.6 39.2C27.2 37.9 25.9 39.8 23.9 38.9M24.8 40.7C26.6 40.2 25.2 39.1 25.3 38.3M25.6 38.3C22.1 36 19.8 34.5 16.1 31.5M25.9 37.9C23.6 36.5 22 35.6 16.5 30.7M16.7 31C16.7 31 16.7 30.9 16.7 30.9M16.7 31C16.7 31 16.7 31 16.7 30.9M46.5 1M45.8 0C43 -0.2 41.7 0.2 40.4 2.9M45.8 0.8C43.4 -1.3 43.8 0 41.5 1M41.8 1.6C21.6 19.3 20.6 20 19.4 24.4M41.2 0.4C21.5 21.5 19.5 20.6 20.8 24.8M19.2 25.7C18.7 28 21.1 29.3 20.2 30.6M19 26.5C17.8 28.3 18.9 28 19 30.3M20.6 30.2C22.9 32.1 24.1 34 25.9 34.4M20.1 29.4C21.4 31.2 23.1 31.9 26.2 35.1M26.5 34.9C28 35.4 28.8 36.7 28.8 35.5M27.7 36C26.8 35.4 29 36.6 27 35.7M28.7 35.2C35.6 36 38.3 30.1 49.6 8.4M30.2 33.8C34.4 34.5 40.1 29.8 50.9 10.6M49.8 9.6C49.8 8.6 50.7 6.7 50.6 4.1M48.4 8.9C51 8.4 51.1 5.2 52 3.6M51.2 5C49.8 2 48.8 -0.6 46.9 1.4M51.7 4.7C52.5 0.5 47 0.9 45 0.6M45.8 0C45.8 0 45.8 0 45.8 0M45.8 0C45.8 0 45.8 0 45.8 0">
      </path>
      <path class="rough-mask" stroke="none"
        d="M16.7 30.9c-4 0.3 -7.7 1.8 -9.7 7.2 -0.2 0.6 -0.8 1 -1.5 1 -1.1 0 -4.5 -2.8 -5.5 -3.4C0 44 3.8 51.2 12.8 51.2c7.6 0 12.8 -4.4 12.8 -12 0 -0.3 -0.1 -0.6 -0.1 -0.9l-8.8 -7.3zM45.8 0c-1.5 0 -2.9 0.7 -4 1.6C21.3 19.9 19.2 20.3 19.2 25.7c0 1.4 0.3 2.7 0.9 3.9l6.4 5.3c0.7 0.2 1.5 0.3 2.2 0.3 6.2 0 9.8 -4.5 21.1 -25.6 0.7 -1.4 1.4 -3 1.4 -4.6C51.2 2.1 48.6 0 45.8 0z">
      </path>
    </svg>