<svg xmlns="http://www.w3.org/2000/svg" viewBox="0 0 52 52" width="150" height="150">
      <style>
        path {
          stroke: #fff;
          fill: url(#hachure);
        }
      </style>
      <title>facebook</title>
      <pattern id="hachure" x="0" y="0" width="60" height="60" patternUnits="userSpaceOnUse">
        <path style="stroke-opacity: 0.7; stroke-width: 0.4; fill: none;"
          d="M60 60C60 60 60 60 60 60M60 60C60 60 60 60 60 60M61.2 50C57.9 53.1 56.3 55.7 55.1 59.4M60.2 49.6C58.9 51.8 57.9 54 53.7 60.3M60.2 39.5C57.8 46.1 51.9 53.2 46.7 60.6M59 40.5C57.2 43.9 55.1 48.9 48.3 60.8M60.9 31.4C54.4 36.1 51.5 44.7 42.4 59.8M60.7 29.7C55.6 37.7 52.9 43.1 42.7 60.9M60.7 18.3C57.1 26.6 49.6 37.8 34.7 61.6M60.2 19.8C55.3 29.4 49.5 37.4 37.1 60.4M59.5 12.3C48.3 29.9 37 51 32.9 58.6M59.6 9.4C49.9 28.3 39.3 46.5 30.6 60M59.9 -1.3C49.3 18.4 41.2 33.2 25.7 60M59.2 0C50.4 18.9 39.2 36.5 26 59.5M57.1 -3.5C43.8 21.5 30.6 42.2 18.4 61.7M55 -1.9C46.7 15.4 36.3 31.2 20.3 59.4M48.6 -0.7C37.2 20.7 25.3 41.8 14.1 59.9M49.6 -1.4C42.1 11.8 33.9 27 13.4 59.3M43.3 -1.5C33.4 14.4 23.7 29.1 6.7 58.8M43.9 -1.6C33.7 16.2 23.4 32.2 8.3 60.6M36.3 -3.8C32.4 12 20.6 25 2 61.8M37.5 -1.4C27.7 17.6 17.3 34.9 3 59.7M32.8 -3.2C22.1 20.3 7.5 39 -3.8 60M32.7 -2.3C19.2 19.7 7.1 40.5 -2.3 58M27.5 -2C18.7 9.6 9.1 25.1 -4.1 47.2M26.1 -2.2C14.8 17.8 4.5 36.9 -3.3 49.2M23 -2.9C10.1 15.5 2.7 30.5 -3.1 39.1M20.8 -2.8C15.3 6.3 10.1 15.9 -2.7 39.3M15.7 -4.6C10.6 9.6 1.8 18.1 -0.7 26.8M15.7 -3.2C11.3 4.4 8.5 9.7 -2 28.3M9.2 -2.9C5 3.9 2.3 10.5 -3.2 16.6M9.5 -2.1C5.5 5.2 1 11.5 -3.3 18.5M4.4 -1.4C1.5 -0.1 0.8 4.6 -3.4 8.4M3.5 -2.3C2.3 1 0.2 3.9 -2.8 9.4">
        </path>
      </pattern>
      <path class="rough-outline" fill="none"
        d="M51.6 25.7M50.4 25.6C49.3 12.3 40.6 2.3 24.5 -0.4M48.9 25.4C50.9 13.6 37.5 0.1 26.8 2.2M25.6 0.8C10.3 -0.1 0.9 13 2.3 24.3M26.7 -0.2C12.5 -0.8 1.9 11.1 -0.5 25.4M0.8 25.6C-0.3 37 9.1 46.9 21.6 50M0.3 24.5C-0.6 38.1 10.3 48.3 21.4 49.5M21.1 49.4C22.3 45 20.5 40.2 20.3 31.4M21.5 49.7C21.6 43.6 22.2 37.6 21.6 32.7M21.8 32.4C20.5 33.2 18.2 32.5 15.4 33.1M21.7 32.7C19.2 32.6 17.1 33 15.3 32.6M15.2 32.7C14.8 30.7 15.5 29.9 15.7 25.2M15.2 32.9C15.4 30.7 15.3 28.2 15.5 25.6M15.3 25.5C17.9 25.2 19.7 25.9 21.7 25.8M15.2 25.6C16.8 25.8 18.1 25.7 21.5 25.6M22.1 25.4C21.3 24.2 22 23.3 21.8 20.3M21.7 25.8C21.7 23.3 21.8 21.2 21.8 20.1M21.7 20.1C22.2 13.9 24.1 10.9 30.5 9.4M22 19.3C21.6 15.6 25.9 11.7 29.5 11.2M31.1 10.5C35.4 9 37.6 10.9 35.5 9.9M31.1 9.4C32 11.3 36.4 12.8 37.7 10.6M36.9 10.9C36.3 12.3 36.2 13.7 36.5 16.9M36.5 11.2C36.6 13.1 36.8 15.7 36.8 17.1M36.6 17.1C35.7 17 35.1 16.9 33.8 17.2M36.6 17.1C36.1 17.2 35.4 17.1 33.6 17.2M33.6 17.1C30.5 17 31.1 19.7 31.1 19.4M32 16.1C30.8 17.9 28.7 20.1 31.4 22.4M29.3 20.9C29.6 21.8 29.6 23.3 29.7 25.5M29.5 21C29.8 22.5 29.6 23.6 29.5 25.6M30.1 25.5C31.3 25.3 33.6 25.1 36.2 25.4M29.8 25.3C31.8 25.5 34.3 25.6 36.3 25.5M36.8 25.8C36.2 27.9 35.6 29.3 35 32.7M36.8 25.8C36.1 27.8 35.6 29.9 35.2 33M35 32.5C33.2 32.7 31.6 32.9 29.9 32.8M35.6 32.6C33.8 32.8 31.7 32.9 29.6 32.7M30.1 32.6C30.2 36.9 29.4 41.8 29.7 50.4M29.4 32.8C29.8 36.7 29.5 41.3 29.7 49.9M29.6 50.1C42.3 47 50.5 39.4 50 25.7M29.4 51.4C39.7 47 49.7 36.5 48.8 26.4M50.4 25.6C50.4 25.6 50.4 25.6 50.4 25.6M50.4 25.6C50.4 25.6 50.4 25.6 50.4 25.6">
      </path>
      <path class="rough-mask" stroke="none"
        d="M50.4 25.6C50.4 11.9 39.3 0.8 25.6 0.8S0.8 11.9 0.8 25.6c0 12.4 9.1 22.6 20.9 24.5V32.8h-6.3V25.6h6.3v-5.5c0 -6.2 3.7 -9.6 9.4 -9.6 2.7 0 5.6 0.5 5.6 0.5v6.1h-3.1c-3.1 0 -4 1.9 -4 3.9V25.6h6.9l-1.1 7.2h-5.8V50.1C41.3 48.2 50.4 38 50.4 25.6z">
      </path>
    </svg>