<svg id="rough_film" viewBox="0 0 52 52" xmlns="http://www.w3.org/2000/svg" width="150" height="150">
      <style>
        path {
          stroke: #fff;
          fill: url(#hachure);
        }
      </style>
      
      <pattern id="hachure" x="0" y="0" width="60" height="60" patternUnits="userSpaceOnUse">
        <path style="stroke-opacity: 0.7; stroke-width: 0.4; fill: none; --darkreader-inline-fill:none;"
          d="M60 60C60 60 60 60 60 60M60 60C60 60 60 60 60 60M61.2 50C57.9 53.1 56.3 55.7 55.1 59.4M60.2 49.6C58.9 51.8 57.9 54 53.7 60.3M60.2 39.5C57.8 46.1 51.9 53.2 46.7 60.6M59 40.5C57.2 43.9 55.1 48.9 48.3 60.8M60.9 31.4C54.4 36.1 51.5 44.7 42.4 59.8M60.7 29.7C55.6 37.7 52.9 43.1 42.7 60.9M60.7 18.3C57.1 26.6 49.6 37.8 34.7 61.6M60.2 19.8C55.3 29.4 49.5 37.4 37.1 60.4M59.5 12.3C48.3 29.9 37 51 32.9 58.6M59.6 9.4C49.9 28.3 39.3 46.5 30.6 60M59.9 -1.3C49.3 18.4 41.2 33.2 25.7 60M59.2 0C50.4 18.9 39.2 36.5 26 59.5M57.1 -3.5C43.8 21.5 30.6 42.2 18.4 61.7M55 -1.9C46.7 15.4 36.3 31.2 20.3 59.4M48.6 -0.7C37.2 20.7 25.3 41.8 14.1 59.9M49.6 -1.4C42.1 11.8 33.9 27 13.4 59.3M43.3 -1.5C33.4 14.4 23.7 29.1 6.7 58.8M43.9 -1.6C33.7 16.2 23.4 32.2 8.3 60.6M36.3 -3.8C32.4 12 20.6 25 2 61.8M37.5 -1.4C27.7 17.6 17.3 34.9 3 59.7M32.8 -3.2C22.1 20.3 7.5 39 -3.8 60M32.7 -2.3C19.2 19.7 7.1 40.5 -2.3 58M27.5 -2C18.7 9.6 9.1 25.1 -4.1 47.2M26.1 -2.2C14.8 17.8 4.5 36.9 -3.3 49.2M23 -2.9C10.1 15.5 2.7 30.5 -3.1 39.1M20.8 -2.8C15.3 6.3 10.1 15.9 -2.7 39.3M15.7 -4.6C10.6 9.6 1.8 18.1 -0.7 26.8M15.7 -3.2C11.3 4.4 8.5 9.7 -2 28.3M9.2 -2.9C5 3.9 2.3 10.5 -3.2 16.6M9.5 -2.1C5.5 5.2 1 11.5 -3.3 18.5M4.4 -1.4C1.5 -0.1 0.8 4.6 -3.4 8.4M3.5 -2.3C2.3 1 0.2 3.9 -2.8 9.4"
          data-darkreader-inline-fill=""></path>
      </pattern>
      <title>film</title>
      <path class="rough-outline" fill="none" d="M47.5 5.5M48.8 6.4C48.5 6.4 48.2 6.4 48 6.4M48.8 6.4C48.6 6.4 48.4 6.4 48 6.4M48 6.5C47.9 7 48.2 7.7 48.1 8.4M48.1 6.4C48 6.9 48 7.2 48 8.4M48 8.4C47 10.2 48.9 10.9 46.8 9.5M47.7 7.8C47.8 9.5 46.3 10 45.1 8.2M47.1 9.3C45 9.4 43.4 9.3 43 9.8M46.8 9.7C45.2 9.7 43.9 9.7 42.9 9.8M42.8 9.6C42 8 42.2 8.9 42.7 8.4M43.8 9.1C43.4 8.3 42.3 10.3 41.6 9.9M41.5 8.3C41.5 8 41.5 7.2 41.7 6.5M41.5 8.4C41.6 7.6 41.6 6.9 41.6 6.4M41.7 6.1C33.6 7 21.3 6 10.6 6.2M41.5 6.2C31.7 5.8 21.5 6.2 9.3 6.8M9.6 6.4C9.5 7 9.6 7.5 9.6 8.5M9.6 6.4C9.7 6.9 9.5 7.5 9.5 8.4M9.6 8.4C10 8.6 9.5 9.3 9.5 10.5M10.8 8.5C11.1 8.9 9.8 9.3 8.5 8M8.6 9.6C7.1 9.3 5.4 9.7 4.4 9.9M8.4 9.5C7.4 9.5 6.1 9.6 4.5 9.5M4.4 9.6C5.1 8.1 1.7 8.7 2.3 7.1M3.1 9.8C4.6 10.4 2.7 8 3.7 9.8M3.1 8.5C3.1 7.7 3.2 7.2 3.3 6.4M3.1 8.4C3.1 7.8 3.2 7.1 3.2 6.4M3.1 6.3C2.9 6.4 2.7 6.4 2.3 6.4M3.2 6.4C3 6.4 2.7 6.4 2.4 6.4M2.4 6.4C-0.5 5.4 0.7 7.3 0.9 7.5M3.7 6.5C2.8 7.8 0.7 6.7 0.4 8.9M-1.6 8.3C-1.2 16.8 1 22.6 0.6 41.8M0 9C-0.4 18.8 -0.6 28.9 0.8 43.2M0 42.4C-0.3 44.5 1.7 43.3 2.8 44.1M-1.6 43.4C-0.3 43.7 2.3 45.1 2.1 44.7M2.4 44.8C2.6 44.8 2.7 44.8 3.1 44.9M2.4 44.8C2.6 44.8 2.9 44.8 3.2 44.8M3.3 44.7C3.3 44.1 3.1 43.7 3.2 42.7M3.2 44.8C3.2 44.3 3.2 44 3.1 42.8M3.2 42.8C3 41.7 4.4 42.7 5 40.2M1.8 42.2C4.9 42 4.5 40 4 42.9M4.6 41.9C5.5 41.5 6 41.4 8.7 41.4M4.4 41.7C5.4 41.5 6.4 41.7 8.5 41.7M8.4 41.6C8.8 42.6 11 42.7 8.1 41.9M8.5 41.2C10.2 40.2 8.3 42.3 8.9 42.2M9.5 42.7C9.7 43.4 9.5 43.8 9.7 44.9M9.6 42.8C9.6 43.6 9.5 44.2 9.7 44.9M10.2 43.8C17.7 43.5 24.8 43.1 42.7 43.5M10 44.7C19.6 45 28.4 44.7 41.3 44.5M41.6 44.9C41.5 44.3 41.8 43.9 41.5 42.7M41.5 44.8C41.6 44 41.7 43.2 41.6 42.8M41.6 42.8C40.2 42.8 42.3 41.9 43.5 41M40.5 42.1C40.6 43.9 43.6 42.8 43.5 41.2M42.7 41.4C44.5 41.7 45.6 41.8 46.9 41.3M42.8 41.5C44.1 41.7 45.8 41.5 46.7 41.5M46.8 41.6C46.5 40.6 48 43.5 48.8 42.8M46.3 40.5C46.3 41.5 47.3 40.3 48.1 44.6M48 42.7C48 43.4 48.2 44.1 47.9 44.7M47.9 42.9C48.1 43.4 48 43.9 48 44.8M48 44.8C48.2 44.8 48.3 44.8 48.8 44.8M48 44.8C48.3 44.8 48.5 44.8 48.8 44.8M48.8 44.8C50.1 44.1 50.2 43.1 50.7 41.6M48.8 45.1C51.1 45.5 50.2 43.3 50.4 40.7M50.6 41.4C51.6 32.5 50.4 22.6 52.4 8.8M51.1 41.7C51.1 34.9 51.9 27.8 51.7 9.2M51.2 8.8C50.9 8.6 50.4 6.3 49.7 5.4M49.8 9.9C49.9 7.8 50.7 5.6 48.8 7.7M48.8 6.4C48.8 6.4 48.8 6.4 48.8 6.4M48.8 6.4C48.8 6.4 48.8 6.4 48.8 6.4M11.1 38.6M9.6 37.2C9.2 38.3 8 37.8 8.7 38.2M9.9 36.9C9.9 37.2 8.2 38 10 40.2M8.7 38.1C7.6 38.7 6.7 38.7 4.4 38.6M8.4 38.5C7.5 38.3 6.3 38.5 4.5 38.5M4.4 38.4C2.3 37 4.5 38.6 4.2 37.8M3.7 37C2.5 38.2 1.9 37.5 3.3 36.3M3 37.3C3.3 36 3.2 34 3.1 33.1M3.1 37.2C3.2 35.7 3.2 34.1 3.2 33.2M3.2 33.2C1.6 31.5 4.1 30.9 3.1 31.2M2.5 31.9C4.1 33 3.8 30.6 5.7 32.7M4.2 32.2C5.3 32.2 6.4 31.8 8.2 32.2M4.5 32C6 32.1 7.6 31.9 8.5 32.1M8.4 32C8.8 32.5 9.4 31.3 9.6 33.8M7.6 32.5C10.5 30.8 11 31 9.2 32.8M9.6 32.9C9.8 34.3 9.8 35.5 9.5 37.2M9.7 33.3C9.5 34.1 9.5 35.3 9.5 37.1M9.6 37.2C9.6 37.2 9.6 37.2 9.6 37.2M9.6 37.2C9.6 37.2 9.6 37.2 9.6 37.2M11.1 28.5M9.6 27.6C10 28.6 9.4 29.2 10 29.4M8.8 26.6C8.4 28.4 9.8 29.3 9.7 28.8M8.6 28.8C7.2 29.1 5.9 28.6 4.3 29.1M8.5 28.7C7.2 28.7 5.8 28.9 4.4 28.8M4.4 28.8C3.5 28.8 4 29.2 2.9 29M2.8 29.9C2.6 29.4 4.4 28.2 1.5 26.4M3.1 27.5C3.1 26.3 3.4 25.1 3.5 23.4M3.1 27.6C3.2 26.3 3.2 25 3.1 23.7M3.2 23.6C2.2 22.6 4.4 21.7 3.3 21.3M2.1 25.2C2.8 21.9 4.7 21.6 3.8 21.2M4.2 22.7C5.1 22.5 6.2 22.5 8.6 22.2M4.6 22.3C5.6 22.5 7.1 22.3 8.5 22.5M8.4 22.4C9 23.9 8.2 24.2 10.6 25M8.6 20.9C9.1 23.6 9 23.9 10.6 22.8M9.6 23.6C9.6 24.7 9.7 25.7 9.8 27.4M9.7 23.5C9.6 25.3 9.7 26.6 9.7 27.7M9.6 27.6C9.6 27.6 9.6 27.6 9.6 27.6M9.6 27.6C9.6 27.6 9.6 27.6 9.6 27.6M8.8 19.6M9.6 18C8.5 17.6 8.4 18 8.5 17.9M9.5 18.5C7.8 17.9 7.3 18.7 6.6 20.8M8.3 19.2C6.7 19.5 5.7 19.2 4.1 19.1M8.6 19.3C7.2 19 6.1 19.1 4.5 19.3M4.4 19.2C3.5 19.3 4.3 18.9 4.7 17.9M4.9 20.7C5.4 20.5 1.6 18.4 1.5 18.7M3.1 17.9C3.1 17.2 3 16 2.9 14.2M3.1 18.1C3 16.3 3.3 14.9 3.2 14.1M3.2 14C2.2 12.6 2.2 12.3 3.5 12.4M3.5 13.3C1.6 13.1 5.3 12.3 4.8 12.9M4.5 12.9C5.1 12.7 6.2 12.8 8.5 12.8M4.3 12.8C5.8 12.9 7.2 12.8 8.3 12.9M8.4 12.8C10.3 13.1 10.6 13.9 8.6 12.6M9.4 11.7C7.5 11 8.4 15.1 11.3 13M9.8 14.1C9.4 14.6 9.9 15.9 9.9 17.9M9.5 13.9C9.6 15.3 9.5 16.8 9.7 18.1M9.6 18C9.6 18 9.6 18 9.6 18M9.6 18C9.6 18 9.6 18 9.6 18M36.3 37.3M36.8 38.8C36.9 40.8 36.8 40.9 35.9 39.6M36.8 37.3C37.5 39.8 37.9 38.5 36.7 38.6M34.5 38.7C26.5 40 21.2 39.5 15 41.4M35.5 40C28.5 39.2 21.5 40.2 15.6 39.6M15.6 40C14.9 39.6 13.6 37.9 14.4 37.6M16.1 39.4C14.7 41.1 13.5 39.2 13.4 38.1M14.2 39.2C14.1 35.9 14.9 33.3 14 29.1M14.4 38.8C14.4 35.9 14.2 33.6 14.2 29.4M14.4 29.2C13 28.7 16 27.3 15.1 28.1M12.9 29.2C13.7 30.3 13.7 29.4 13.8 29.2M15.3 27.7C23.1 26.7 30.1 29.3 36.4 28.8M15.1 28.7C22.7 28.6 30.9 28.7 35.2 27.2M35.6 28C37.9 28.8 37.3 27.5 37.1 30.3M36.5 27.4C38 28.8 36.7 27.7 36.6 30.9M36.8 29.7C36.4 31.2 36.6 34.1 37.3 39.4M37 29C37 32.7 37.1 37 36.5 38.9M36.8 38.8C36.8 38.8 36.8 38.8 36.8 38.8M36.8 38.8C36.8 38.8 36.8 38.8 36.8 38.8M35.3 20.7M36.8 22C36.7 21.4 36.6 24.7 36 21.7M36.5 22.7C38.3 21.3 36.6 24.8 35.5 21.9M35.8 23C27.1 23.6 21.2 24.3 14.2 22.7M34.9 23.3C29.8 23.4 24.4 23.1 15.7 23.1M15.6 23.2C16.3 21.8 13.6 23.5 15.9 21.4M16.4 23.8C14.5 24.8 13.9 22.1 13.5 22.3M14.4 21.6C13.9 19.6 14.8 17.9 14 12.1M14.6 22.1C14.6 19.6 14.1 17.2 14.6 12.1M14.4 12.4C14.2 12.1 15.7 11.5 14.8 10.1M13.8 12.3C15.7 13 15.2 9.7 14.2 12.2M15.1 11.7C20.4 11.1 25.1 10 36 11M16.2 10.8C22.8 10.7 30.3 11.2 35.9 11.2M35.6 11.2C37.1 9.6 35.8 11.6 37.3 12.6M35.9 9.7C36.2 10.8 35.5 10.2 37.7 12.6M37.1 12C36.4 15.6 36.3 18.4 37.5 21.3M37 12.2C36.5 15.9 36.6 19.5 36.8 22.2M36.8 22C36.8 22 36.8 22 36.8 22M36.8 22C36.8 22 36.8 22 36.8 22M48.8 36.5M48 37.2C47 38.7 48.3 38.3 47.2 36.9M49.3 38C49 38.6 48.3 39.5 45.4 39.7M46.5 38.3C45.6 38.4 44.6 38.1 42.6 38.2M46.9 38.3C45.3 38.3 44.1 38.5 42.8 38.5M42.8 38.4C41.8 38.1 42.2 37.5 43.2 36.1M41.4 37.3C42.6 37.2 42.6 38.8 40.9 36M41.8 37.1C41.7 36.5 41.5 35.2 41.9 33.3M41.5 37.1C41.5 35.6 41.7 34.2 41.5 33.2M41.6 33.2C41.4 32.6 42.1 33 43.4 31.1M40.8 34.4C39.9 33.1 42.6 33 43.8 31.8M42.9 32C43.8 32.1 44.7 31.9 46.8 32.2M42.9 32C43.8 31.9 44.6 31.9 46.7 32.1M46.8 32C48.8 32.5 47.5 32.6 46.7 33.2M47.5 31.9C47.3 30.9 49.1 32.3 48.9 32.6M48 33.3C48.3 34 48.1 34.9 47.9 36.9M48 33.2C48.2 34.7 47.9 35.8 48 37.1M48 37.2C48 37.2 48 37.2 48 37.2M48 37.2C48 37.2 48 37.2 48 37.2M47.1 28.5M48 27.6C47.8 27.8 48.3 30.2 47.4 29.1M47.9 27.8C49 28.7 47.7 27 46.5 30.3M46.8 29.1C45.5 28.7 44.9 29.1 43 29M46.8 28.7C45.4 28.9 44.1 28.7 42.9 28.7M42.8 28.8C43.6 28.4 41.4 29.6 40.6 28M44.4 27.2C40.4 27.5 41.9 28.3 40.9 27.5M41.8 27.7C41.7 26.2 41.7 24.6 41.6 23.5M41.5 27.6C41.6 26.3 41.6 24.5 41.4 23.7M41.6 23.6C40.6 22.8 41.4 21.7 44.3 22.4M41.2 23.3C40.2 22.4 43.6 21.8 42.5 22.2M42.8 22.5C44.1 22.1 45.6 22.4 46.6 22.4M42.8 22.4C44.4 22.3 45.7 22.3 46.8 22.4M46.8 22.4C48 23.3 49.1 22.4 47.3 23.3M46 23.8C46 22.1 49.2 22.1 47.2 22.2M48 23.7C47.8 25.1 48 26.5 48.3 27.5M48.1 23.6C47.9 25.2 48.1 26.7 48.1 27.5M48 27.6C48 27.6 48 27.6 48 27.6M48 27.6C48 27.6 48 27.6 48 27.6M48.5 17.3M48 18C49.1 17.9 46.6 19.4 48.2 19.2M47 17.3C48.5 19.1 45.7 20.7 48.2 19.7M46.5 19.2C45.5 19.1 43.6 19.3 42.6 19.1M46.7 19.1C45.5 19.1 44 19.3 42.8 19.2M42.8 19.2C42.2 20.7 41.8 19.9 42.2 16.6M42.3 20.6C41.1 20.8 41.3 19.1 43.1 18.1M41.8 18.3C41.6 17 41.8 16.5 41.4 14.1M41.6 18.1C41.8 16.7 41.6 15.3 41.7 14.1M41.6 14C42.6 14 42.6 12.3 41.9 11.4M40.6 13.6C40.4 13.1 43.9 14.4 42 11.5M42.8 13.1C43.6 12.5 45 12.8 46.6 13.1M42.7 12.8C44.2 13 45.5 12.7 46.9 12.7M46.8 12.8C46.2 13.9 48.4 13.1 47.2 14.9M47.1 13.4C47.1 14.1 49.4 12 47.6 13.8M47.7 14.1C48.1 14.9 48.1 15.8 47.8 17.8M48.1 13.9C48 14.9 48 16 48 18.1M48 18C48 18 48 18 48 18M48 18C48 18 48 18 48 18"></path>
      <path class="rough-mask" stroke="none" d="M48.8 6.4h-0.8v2c0 0.7 -0.5 1.2 -1.2 1.2h-4c-0.7 0 -1.2 -0.5 -1.2 -1.2V6.4H9.6v2c0 0.7 -0.5 1.2 -1.2 1.2H4.4c-0.7 0 -1.2 -0.5 -1.2 -1.2V6.4h-0.8C1.1 6.4 0 7.5 0 8.8v33.6c0 1.3 1.1 2.4 2.4 2.4h0.8v-2c0 -0.7 0.5 -1.2 1.2 -1.2h4c0.7 0 1.2 0.5 1.2 1.2v2h32v-2c0 -0.7 0.5 -1.2 1.2 -1.2h4c0.7 0 1.2 0.5 1.2 1.2v2h0.8c1.3 0 2.4 -1.1 2.4 -2.4V8.8c0 -1.3 -1.1 -2.4 -2.4 -2.4zM9.6 37.2c0 0.7 -0.5 1.2 -1.2 1.2H4.4c-0.7 0 -1.2 -0.5 -1.2 -1.2v-4c0 -0.7 0.5 -1.2 1.2 -1.2h4c0.7 0 1.2 0.5 1.2 1.2v4zm0 -9.6c0 0.7 -0.5 1.2 -1.2 1.2H4.4c-0.7 0 -1.2 -0.5 -1.2 -1.2v-4c0 -0.7 0.5 -1.2 1.2 -1.2h4c0.7 0 1.2 0.5 1.2 1.2v4zm0 -9.6c0 0.7 -0.5 1.2 -1.2 1.2H4.4c-0.7 0 -1.2 -0.5 -1.2 -1.2v-4c0 -0.7 0.5 -1.2 1.2 -1.2h4c0.7 0 1.2 0.5 1.2 1.2v4zm27.2 20.8c0 0.7 -0.5 1.2 -1.2 1.2H15.6c-0.7 0 -1.2 -0.5 -1.2 -1.2v-9.6c0 -0.7 0.5 -1.2 1.2 -1.2h20c0.7 0 1.2 0.5 1.2 1.2v9.6zm0 -16.8c0 0.7 -0.5 1.2 -1.2 1.2H15.6c-0.7 0 -1.2 -0.5 -1.2 -1.2v-9.6c0 -0.7 0.5 -1.2 1.2 -1.2h20c0.7 0 1.2 0.5 1.2 1.2v9.6zm11.2 15.2c0 0.7 -0.5 1.2 -1.2 1.2h-4c-0.7 0 -1.2 -0.5 -1.2 -1.2v-4c0 -0.7 0.5 -1.2 1.2 -1.2h4c0.7 0 1.2 0.5 1.2 1.2v4zm0 -9.6c0 0.7 -0.5 1.2 -1.2 1.2h-4c-0.7 0 -1.2 -0.5 -1.2 -1.2v-4c0 -0.7 0.5 -1.2 1.2 -1.2h4c0.7 0 1.2 0.5 1.2 1.2v4zm0 -9.6c0 0.7 -0.5 1.2 -1.2 1.2h-4c-0.7 0 -1.2 -0.5 -1.2 -1.2v-4c0 -0.7 0.5 -1.2 1.2 -1.2h4c0.7 0 1.2 0.5 1.2 1.2v4z"></path>
    </svg>