<svg xmlns="http://www.w3.org/2000/svg" id="rough_instagram" viewBox="0 0 45 52" width="150" height="150">
      <style>
        path {
          stroke: #fff;
          fill: url(#hachure);
        }
      </style>

      <pattern id="hachure" x="0" y="0" width="60" height="60" patternUnits="userSpaceOnUse">
        <path style="stroke-opacity: 0.7; stroke-width: 0.4; fill: none; --darkreader-inline-fill:none;"
          d="M60 60C60 60 60 60 60 60M60 60C60 60 60 60 60 60M61.2 50C57.9 53.1 56.3 55.7 55.1 59.4M60.2 49.6C58.9 51.8 57.9 54 53.7 60.3M60.2 39.5C57.8 46.1 51.9 53.2 46.7 60.6M59 40.5C57.2 43.9 55.1 48.9 48.3 60.8M60.9 31.4C54.4 36.1 51.5 44.7 42.4 59.8M60.7 29.7C55.6 37.7 52.9 43.1 42.7 60.9M60.7 18.3C57.1 26.6 49.6 37.8 34.7 61.6M60.2 19.8C55.3 29.4 49.5 37.4 37.1 60.4M59.5 12.3C48.3 29.9 37 51 32.9 58.6M59.6 9.4C49.9 28.3 39.3 46.5 30.6 60M59.9 -1.3C49.3 18.4 41.2 33.2 25.7 60M59.2 0C50.4 18.9 39.2 36.5 26 59.5M57.1 -3.5C43.8 21.5 30.6 42.2 18.4 61.7M55 -1.9C46.7 15.4 36.3 31.2 20.3 59.4M48.6 -0.7C37.2 20.7 25.3 41.8 14.1 59.9M49.6 -1.4C42.1 11.8 33.9 27 13.4 59.3M43.3 -1.5C33.4 14.4 23.7 29.1 6.7 58.8M43.9 -1.6C33.7 16.2 23.4 32.2 8.3 60.6M36.3 -3.8C32.4 12 20.6 25 2 61.8M37.5 -1.4C27.7 17.6 17.3 34.9 3 59.7M32.8 -3.2C22.1 20.3 7.5 39 -3.8 60M32.7 -2.3C19.2 19.7 7.1 40.5 -2.3 58M27.5 -2C18.7 9.6 9.1 25.1 -4.1 47.2M26.1 -2.2C14.8 17.8 4.5 36.9 -3.3 49.2M23 -2.9C10.1 15.5 2.7 30.5 -3.1 39.1M20.8 -2.8C15.3 6.3 10.1 15.9 -2.7 39.3M15.7 -4.6C10.6 9.6 1.8 18.1 -0.7 26.8M15.7 -3.2C11.3 4.4 8.5 9.7 -2 28.3M9.2 -2.9C5 3.9 2.3 10.5 -3.2 16.6M9.5 -2.1C5.5 5.2 1 11.5 -3.3 18.5M4.4 -1.4C1.5 -0.1 0.8 4.6 -3.4 8.4M3.5 -2.3C2.3 1 0.2 3.9 -2.8 9.4"
          data-darkreader-inline-fill=""></path>
      </pattern>
      <title>instagram</title>
      <path class="rough-outline" fill="none" d="M22.9 14.7M22.4 14.1C15.2 12.6 11.3 19.9 9.9 27.1M23.4 14.9C17.3 15.6 12.5 20 10 26.3M10.9 25.6C11.6 30.5 15.6 35.9 21.9 37.5M10.8 24.9C12.6 32.9 15.8 38 22 36.1M22.4 37.1C29.9 37.5 32.6 32.1 34.1 24.9M20.9 36.7C28.6 37.8 34.9 33 34.8 25.3M33.9 25.6C34.2 20 29.8 14.7 20.9 13.9M33.6 25.9C35.3 18.5 28.1 13.9 23.8 15M22.4 14.1C22.4 14.1 22.4 14.1 22.4 14.1M22.4 14.1C22.4 14.1 22.4 14.1 22.4 14.1M22 34.5M22.4 33.1C19.2 31.7 13.3 30.5 13.7 24.9M21 33.5C16.8 32.6 15.4 28.6 16 25.5M14.9 25.6C14 20.1 18.5 17.6 21.9 17M14.1 25.9C14.3 20.6 17.5 18.6 21 19.7M22.4 18.1C26 16.9 29.5 22 29.2 26.5M22.8 16.8C28.3 16.5 28.2 22.2 31.7 27.4M29.9 25.6C30.5 29.4 25.7 31.9 22.3 34.5M30 27.1C29.4 30.3 27.2 31.9 22 33.6M22.4 33.1C22.4 33.1 22.4 33.1 22.4 33.1M22.4 33.1C22.4 33.1 22.4 33.1 22.4 33.1M37.9 14.9M37 13.7C37 16.6 36 16.6 33.4 16.4M37.6 14C36.9 13.8 35.2 14.9 33.9 17.4M34.3 16.4C34.3 16.3 32.9 13.8 32.3 13.7M32.7 16.8C32.9 15.1 31.1 16.6 31.9 12.5M31.6 13.7C32.3 13 33.1 10 33 12.5M31.7 14.1C32.3 12.3 33.2 11.8 33.8 12M34.3 11C36.2 11.7 37.1 13.4 37.4 14.3M35.7 12.1C35.1 11.7 38.7 12.5 38 13.4M37 13.7C37 13.7 37 13.7 37 13.7M37 13.7C37 13.7 37 13.7 37 13.7M44.7 17M44.6 16.4C44.2 12.6 43.3 10.9 42.5 7.1M45.5 17.8C45.1 14.4 45.3 9.6 42.1 6.4M41 7C39.3 3.6 35 4.8 31.1 2.1M42 6.4C37.3 4.5 34.4 3.1 32.3 4M31.6 3.4C26.8 2.6 16 3.6 11.6 3.5M30.8 3.6C27.6 3.3 16.1 2.1 11.7 2.9M13.1 3.4C10.7 2.6 7.2 3.5 2.3 8.3M13.7 4C8.4 4.6 5.6 4.3 4.9 6.4M3.7 7C0.7 11.1 -0.9 13.6 0.6 15.3M3.3 8.1C1.5 8.9 -0.4 12.4 -0.5 17.4M0.1 16.4C-0.3 19.5 -1.2 30 -0.5 35.7M-0.9 16.7C0.1 21.8 0.2 32.5 0.7 36.2M0.1 34.9C-0.9 38.2 0.7 43 2.9 45.5M-0.2 35.5C0.8 38.1 1.1 41.5 4.7 45M3.7 44.3C4.8 48.4 10.1 48.3 13.6 48.9M3.5 44.3C7.1 46.3 8 46.4 14.6 47.6M13.1 47.9C15.7 49 29.1 49.2 32 46.4M14.4 49.2C17.2 49 26.6 46.3 30.8 46.2M31.6 47.9C33.8 47.3 37.3 45.7 40.9 43.7M30 48.2C33.5 47.5 38.2 46.9 40.9 44M41 44.3C43.3 41.1 45.5 38.3 44.1 35.6M41.1 43.7C43.6 41.1 45.2 39.8 44.2 34.5M44.6 34.9C44.1 29.8 44.9 20.3 44 16.6M45.5 34.5C44.5 32.8 46.2 21.2 44.7 17.9M44.6 16.4C44.6 16.4 44.6 16.4 44.6 16.4M44.6 16.4C44.6 16.4 44.6 16.4 44.6 16.4M40.2 39.7M39.9 38.8C37.9 40.7 38.5 41.6 34.8 43.4M39 39.4C38.7 40.5 38.7 42.2 36.7 41.8M35.6 43.1C31.9 43.6 24.6 44.3 22.9 44.3M34.2 42.8C32.5 44.4 24.2 45.1 23.2 43.6M22.4 44C18.7 43.4 12.7 44.4 8.7 44.5M22.8 42.9C18.8 44.3 13.6 44.4 9 43.8M9.2 43.1C8 42.2 5.7 40.8 6.1 39.2M9.6 42.9C6.9 41.3 4.5 39.4 3.3 40.3M4.9 38.8C2.1 36.9 3.8 29.4 5.6 25.6M4.6 40C5 37.3 5.8 29.6 2.3 24.5M4 25.6C3 21.1 4.2 16.2 4.5 11.9M2.8 25.8C2.7 22.3 3.9 15 5.8 11.5M4.9 12.4C4.4 11.6 7.7 8.8 9.3 7.6M6.1 13.1C7.3 11.2 7.7 8.6 10.5 9.5M9.2 8.1C10.6 5.7 19.9 7.6 22.1 6.7M8.1 7.4C10.5 7.4 20.3 5.6 21.4 6M22.4 7.2C24.2 7.3 31.2 6.8 35.3 9.1M22.2 8.7C25.5 7.9 32.2 8.4 35.1 9.9M35.6 8.1C36.9 8.5 39.3 9.6 40.4 11.6M36.2 9.3C38.5 10.6 38.4 10.7 38.5 11.5M39.9 12.4C40.7 15.8 41.3 23.1 42 25.2M41.2 13.7C42.6 13.6 40.2 21.8 41.4 24.5M40.8 25.6C41.6 29.1 41 37.2 41 39M40.5 24.9C39.1 28.5 40.1 35.8 39.8 38.4M39.9 38.8C39.9 38.8 39.9 38.8 39.9 38.8M39.9 38.8C39.9 38.8 39.9 38.8 39.9 38.8"></path>
      <path class="rough-mask" stroke="none" d="M22.4 14.1c-6.4 0 -11.5 5.1 -11.5 11.5s5.1 11.5 11.5 11.5S33.9 32 33.9 25.6 28.8 14.1 22.4 14.1zm0 19c-4.1 0 -7.5 -3.4 -7.5 -7.5s3.4 -7.5 7.5 -7.5 7.5 3.4 7.5 7.5 -3.4 7.5 -7.5 7.5zm14.6 -19.4c0 1.5 -1.2 2.7 -2.7 2.7 -1.5 0 -2.7 -1.2 -2.7 -2.7s1.2 -2.7 2.7 -2.7 2.7 1.2 2.7 2.7zm7.6 2.7c-0.2 -3.6 -1 -6.8 -3.6 -9.4 -2.6 -2.6 -5.8 -3.4 -9.4 -3.6 -3.7 -0.2 -14.8 -0.2 -18.5 0 -3.6 0.2 -6.8 1 -9.4 3.6s-3.4 5.8 -3.6 9.4c-0.2 3.7 -0.2 14.8 0 18.5 0.2 3.6 1 6.8 3.6 9.4s5.8 3.4 9.4 3.6c3.7 0.2 14.8 0.2 18.5 0 3.6 -0.2 6.8 -1 9.4 -3.6 2.6 -2.6 3.4 -5.8 3.6 -9.4 0.2 -3.7 0.2 -14.8 0 -18.5zM39.9 38.8c-0.8 2 -2.3 3.5 -4.3 4.3 -3 1.2 -10 0.9 -13.2 0.9s-10.3 0.3 -13.2 -0.9c-2 -0.8 -3.5 -2.3 -4.3 -4.3 -1.2 -3 -0.9 -10 -0.9 -13.2s-0.3 -10.3 0.9 -13.2c0.8 -2 2.3 -3.5 4.3 -4.3 3 -1.2 10 -0.9 13.2 -0.9s10.3 -0.3 13.2 0.9c2 0.8 3.5 2.3 4.3 4.3 1.2 3 0.9 10 0.9 13.2s0.3 10.3 -0.9 13.2z"></path>
    </svg>