<svg id="rough_dollar-sign" viewBox="0 0 29 52" xmlns="http://www.w3.org/2000/svg" width="150" height="150">
      <style>
        path {
          stroke: #fff;
          fill: url(#hachure);
        }
      </style>

      <pattern id="hachure" x="0" y="0" width="60" height="60" patternUnits="userSpaceOnUse">
        <path style="stroke-opacity: 0.7; stroke-width: 0.4; fill: none; --darkreader-inline-fill:none;"
          d="M60 60C60 60 60 60 60 60M60 60C60 60 60 60 60 60M61.2 50C57.9 53.1 56.3 55.7 55.1 59.4M60.2 49.6C58.9 51.8 57.9 54 53.7 60.3M60.2 39.5C57.8 46.1 51.9 53.2 46.7 60.6M59 40.5C57.2 43.9 55.1 48.9 48.3 60.8M60.9 31.4C54.4 36.1 51.5 44.7 42.4 59.8M60.7 29.7C55.6 37.7 52.9 43.1 42.7 60.9M60.7 18.3C57.1 26.6 49.6 37.8 34.7 61.6M60.2 19.8C55.3 29.4 49.5 37.4 37.1 60.4M59.5 12.3C48.3 29.9 37 51 32.9 58.6M59.6 9.4C49.9 28.3 39.3 46.5 30.6 60M59.9 -1.3C49.3 18.4 41.2 33.2 25.7 60M59.2 0C50.4 18.9 39.2 36.5 26 59.5M57.1 -3.5C43.8 21.5 30.6 42.2 18.4 61.7M55 -1.9C46.7 15.4 36.3 31.2 20.3 59.4M48.6 -0.7C37.2 20.7 25.3 41.8 14.1 59.9M49.6 -1.4C42.1 11.8 33.9 27 13.4 59.3M43.3 -1.5C33.4 14.4 23.7 29.1 6.7 58.8M43.9 -1.6C33.7 16.2 23.4 32.2 8.3 60.6M36.3 -3.8C32.4 12 20.6 25 2 61.8M37.5 -1.4C27.7 17.6 17.3 34.9 3 59.7M32.8 -3.2C22.1 20.3 7.5 39 -3.8 60M32.7 -2.3C19.2 19.7 7.1 40.5 -2.3 58M27.5 -2C18.7 9.6 9.1 25.1 -4.1 47.2M26.1 -2.2C14.8 17.8 4.5 36.9 -3.3 49.2M23 -2.9C10.1 15.5 2.7 30.5 -3.1 39.1M20.8 -2.8C15.3 6.3 10.1 15.9 -2.7 39.3M15.7 -4.6C10.6 9.6 1.8 18.1 -0.7 26.8M15.7 -3.2C11.3 4.4 8.5 9.7 -2 28.3M9.2 -2.9C5 3.9 2.3 10.5 -3.2 16.6M9.5 -2.1C5.5 5.2 1 11.5 -3.3 18.5M4.4 -1.4C1.5 -0.1 0.8 4.6 -3.4 8.4M3.5 -2.3C2.3 1 0.2 3.9 -2.8 9.4"
          data-darkreader-inline-fill=""></path>
      </pattern>
      <title>dollar-sign</title>
      <path class="rough-outline" fill="none"
        d="M21.8 22.7M21.3 22.5C16.6 21.6 12.5 21.1 10.7 20.4M21.3 23.7C17 22.2 14 21.4 10.4 19.7M10.1 20.1C8 21.3 7.4 17.5 6.4 17.1M8.7 19.7C8.1 18.9 7.5 20.4 8.8 18M8 17.4C6.7 16.1 8.8 13.5 9.4 13.1M8.4 16.3C9.8 15.2 7.7 14.9 10.7 14.1M10.7 14.8C12.3 14.5 14.1 14 18 14.4M11 14.3C12.6 14.2 14.2 14.6 17.8 14.4M17.6 14.4C17.7 14 20.9 16.2 20.2 14.7M16.6 13.1C18.6 13.6 18.6 14 22.2 16M21 15.5C22.3 16 23 17.3 22.1 13.8M19.9 16.9C20.2 16.2 20.6 14 24 17.1M23.3 15C23.5 14.3 24.5 13.6 26.9 11.6M23.1 15.4C23.7 14.3 24.8 13.8 26.4 12M26.5 11.9C27.1 12.7 28 9 26.5 8M25.4 12.7C28.6 13 28.1 11.2 27.9 7.6M26.3 9.4C22.6 6.6 22.3 5 16.9 6.5M25.3 8.1C24.1 5.9 19.2 6.6 18 7.2M17.9 6.3C17.6 4.6 17.6 2.7 17.7 1.3M17.5 6.3C17.6 5.3 17.8 4.3 17.6 1.4M17.6 1.6C17.7 0.1 16.5 1.2 15.4 1.6M18 0.6C19.2 2 16.3 1.1 16.4 0.7M16 0.2C14.6 -0.1 13.9 0 12.6 -0.1M16.1 -0.1C14.8 0.1 13.5 -0.1 12.8 -0.1M12.8 0C10.8 0.5 10 -0.5 11.3 1.2M11.5 0.2C10.4 -0.3 9.7 0.8 11.2 3.1M11.4 1.9C11.4 3.4 11.2 5.2 11.4 6.8M11 1.7C11.1 3.3 11.2 5.3 11.4 6.4M11.2 6.4C11.1 6.4 11 6.4 10.9 6.4M11.2 6.4C11.1 6.4 11 6.4 10.9 6.4M10.9 6.4C6 7.2 1 10.5 0.1 19M9.9 4.9C4.8 4.7 -2.1 12 -1.1 18.5M0.1 18.4C-1 23.3 4 27.8 7.5 27.7M0.9 18.2C-0.9 22.1 5.2 25.3 7.6 27.5M9.2 28C12.9 29.5 15.9 30.1 19 30.8M8.5 27.8C12.8 29.5 16.3 30.6 18.4 30.9M18.8 31.1C18.6 30.6 20.4 32.4 19.5 33M20.1 31.2C21.7 30.7 19.9 33.3 19.6 33.5M20.9 33.9C21.7 34.5 18.4 35.6 17 37.7M19.6 33.4C19.3 36.1 20.4 38.6 17.4 35.6M18.2 36.4C16.6 36.6 14.8 37.2 11.7 37M17.7 37.2C15.6 36.8 13.2 37 11.6 37M11.3 36.9C11.3 38.1 10.1 35.3 8.7 34.5M11.9 37.8C8.7 36.3 7.1 35.8 6.1 34.6M7.8 35.8C5.9 34.5 7.5 36.8 6.4 34.9M9.2 36.4C8.5 37.1 5.7 37.2 5.9 36M6.1 36.3C4.3 37.5 3.3 38.5 2.1 39M5.6 36C4.8 36.9 3.8 37.6 2.1 39.5M2.3 39.4C2.6 39 0.2 41.3 1.4 43.4M1.6 39.6C2 40.6 2.5 40.2 1.5 40.5M2.5 41.9C5.6 44.3 9.1 45.4 9.7 44.6M1.6 41.3C3.8 42.8 9.3 44.5 10.5 44.6M11.2 44.8C11.6 46.3 11 47.6 11 49.5M11 45C11.2 46.7 11.2 48 11 49.8M11.2 49.7C10.6 51.1 12.5 51.5 14.2 52.1M12.5 49.8C11.4 48.9 11.5 50.9 13.7 50.8M12.8 51.1C13.8 51.5 14.7 51.2 16.2 51.3M12.7 51.2C13.8 51.3 14.9 51.2 16 51.3M16 51.3C18.4 52.9 17.8 50.7 17.4 50.5M15.2 50.3C18.2 50.9 16.4 52 18.9 50.7M17.9 49.7C18 48 17.7 46.2 17.5 44.8M17.4 49.6C17.6 47.8 17.5 46 17.4 44.9M17.6 44.9C22.1 44.4 27.8 41.9 28.3 36.7M17.7 46.4C20.9 45.8 28 42.4 29.4 38.3M28.2 37.6C31.5 30.5 26.1 23.9 19.4 23.2M27.2 37.4C31.7 31.9 25.9 23.7 20.7 22.4M20.9 23.4C20.9 23.4 20.9 23.3 20.9 23.3M20.9 23.4C20.9 23.4 20.9 23.4 20.9 23.3">
      </path>
      <path class="rough-mask" stroke="none"
        d="M20.9 23.3l-10.8 -3.2C8.9 19.8 8 18.7 8 17.4c0 -1.6 1.3 -3 3 -3h6.6c1.2 0 2.4 0.4 3.4 1.1 0.6 0.4 1.4 0.3 2 -0.2l3.5 -3.4c0.7 -0.7 0.6 -1.8 -0.2 -2.5C23.8 7.5 20.7 6.4 17.6 6.4V1.6c0 -0.9 -0.7 -1.6 -1.6 -1.6h-3.2c-0.9 0 -1.6 0.7 -1.6 1.6v4.8h-0.3C4.6 6.4 -0.5 11.9 0.1 18.4c0.4 4.6 3.9 8.4 8.4 9.7l10.3 3c1.3 0.4 2.1 1.5 2.1 2.8 0 1.6 -1.3 3 -3 3h-6.6C10 36.8 8.8 36.4 7.8 35.8c-0.6 -0.4 -1.4 -0.3 -2 0.2l-3.5 3.4c-0.7 0.7 -0.6 1.8 0.2 2.5 2.5 1.9 5.5 3 8.7 3v4.8c0 0.9 0.7 1.6 1.6 1.6h3.2c0.9 0 1.6 -0.7 1.6 -1.6v-4.8c4.7 -0.1 9 -2.9 10.6 -7.3 2.1 -6.2 -1.5 -12.5 -7.3 -14.2z">
      </path>
    </svg>