<svg id="rough_question" viewBox="0 0 39 52" xmlns="http://www.w3.org/2000/svg" width="150" height="150">
      <title>question</title>
      <style>
        path {
          stroke: #fff;
          fill: url(#hachure);
        }
      </style>
      
      <pattern id="hachure" x="0" y="0" width="60" height="60" patternUnits="userSpaceOnUse">
        <path style="stroke-opacity: 0.7; stroke-width: 0.4; fill: none; --darkreader-inline-fill:none;"
          d="M60 60C60 60 60 60 60 60M60 60C60 60 60 60 60 60M61.2 50C57.9 53.1 56.3 55.7 55.1 59.4M60.2 49.6C58.9 51.8 57.9 54 53.7 60.3M60.2 39.5C57.8 46.1 51.9 53.2 46.7 60.6M59 40.5C57.2 43.9 55.1 48.9 48.3 60.8M60.9 31.4C54.4 36.1 51.5 44.7 42.4 59.8M60.7 29.7C55.6 37.7 52.9 43.1 42.7 60.9M60.7 18.3C57.1 26.6 49.6 37.8 34.7 61.6M60.2 19.8C55.3 29.4 49.5 37.4 37.1 60.4M59.5 12.3C48.3 29.9 37 51 32.9 58.6M59.6 9.4C49.9 28.3 39.3 46.5 30.6 60M59.9 -1.3C49.3 18.4 41.2 33.2 25.7 60M59.2 0C50.4 18.9 39.2 36.5 26 59.5M57.1 -3.5C43.8 21.5 30.6 42.2 18.4 61.7M55 -1.9C46.7 15.4 36.3 31.2 20.3 59.4M48.6 -0.7C37.2 20.7 25.3 41.8 14.1 59.9M49.6 -1.4C42.1 11.8 33.9 27 13.4 59.3M43.3 -1.5C33.4 14.4 23.7 29.1 6.7 58.8M43.9 -1.6C33.7 16.2 23.4 32.2 8.3 60.6M36.3 -3.8C32.4 12 20.6 25 2 61.8M37.5 -1.4C27.7 17.6 17.3 34.9 3 59.7M32.8 -3.2C22.1 20.3 7.5 39 -3.8 60M32.7 -2.3C19.2 19.7 7.1 40.5 -2.3 58M27.5 -2C18.7 9.6 9.1 25.1 -4.1 47.2M26.1 -2.2C14.8 17.8 4.5 36.9 -3.3 49.2M23 -2.9C10.1 15.5 2.7 30.5 -3.1 39.1M20.8 -2.8C15.3 6.3 10.1 15.9 -2.7 39.3M15.7 -4.6C10.6 9.6 1.8 18.1 -0.7 26.8M15.7 -3.2C11.3 4.4 8.5 9.7 -2 28.3M9.2 -2.9C5 3.9 2.3 10.5 -3.2 16.6M9.5 -2.1C5.5 5.2 1 11.5 -3.3 18.5M4.4 -1.4C1.5 -0.1 0.8 4.6 -3.4 8.4M3.5 -2.3C2.3 1 0.2 3.9 -2.8 9.4"
          data-darkreader-inline-fill=""></path>
      </pattern>
      <path class="rough-outline" fill="none" d="M18.7 -0.9M20.2 0C11.9 0.9 8.5 4.8 3.6 9.6M19.6 -0.6C13.8 0.8 7.2 4.2 2.4 7.9M3 9.1C0.9 9.9 1.8 12.2 3.7 11.1M3.3 9C3.3 8.5 4.2 11.5 2 12.6M3.9 12C4.9 13.5 6.4 14.4 7.6 15.8M3.3 12.2C4.5 13.2 5.6 14.3 7.9 15.7M7.8 15.7C9.5 16.1 10.3 17.7 10.7 16.6M9.1 15.4C7.2 15.2 9.2 18 12.4 16.3M11.1 15.3C14.6 12.5 16.3 11.3 19.9 10.1M11.3 14.3C11.8 13.4 16.3 9.4 20.8 11.3M19.4 10.4C22.5 8.9 26.8 13.8 27.4 16.7M18 9.7C21.8 9.4 26.1 11.2 26.9 14.8M26.3 15.4C24.7 17.9 23.4 19.8 21 20.2M25.5 14.5C26.8 17.4 26.2 20.4 22 20M21.4 20.5C17 23.2 14.1 24.7 12.9 31.4M20.6 19C19.3 23.8 11.8 24.6 13 30.2M13.2 31.1C13.3 31.3 13.1 31.5 13.2 32M13.2 31.1C13.2 31.3 13.2 31.5 13.2 32M13.2 32C12.5 33.4 15.5 33.7 15.2 33.1M12.6 32.1C14.6 33.3 13.6 35.8 16.7 33.4M15.8 34.7C18.4 34.7 21.2 34.2 23.1 34.1M15.5 34.4C18.3 34.2 20.6 34.5 22.6 34.6M22.8 34.4C24.9 33.7 23.9 32.7 26.1 31.5M24 35.5C22.7 33.3 23.4 32.7 25.2 33.8M25.2 32C25.2 31.8 25.2 31.6 25.2 31.4M25.2 32C25.2 31.8 25.2 31.7 25.2 31.4M25.2 31.4C26.1 28.5 37.4 25.8 38.1 14.4M26.1 30.7C26.6 25.5 37 26.6 37.3 14M37.7 15.3C37.3 6 29.9 -0.2 20.6 0.1M37.9 16.2C39.4 7.5 29.6 1.2 20.6 1.2M20.2 0C20.2 0 20.2 0 20.2 0M20.2 0C20.2 0 20.2 0 20.2 0M19.6 37.5M19.2 37.3C14.4 36.6 13.5 40.4 12.4 45.4M19.4 37.7C13.9 38.9 12.1 41.9 14.1 44.2M12.3 44.2C12.8 47.5 14.2 49.9 20.5 49.7M11.7 42.6C11.2 47.9 14.1 51.1 19.2 49.6M19.2 51.1C22.2 49.7 25.3 49.2 27.4 44.8M19 50.7C22.2 49.5 24.4 47.5 24.5 44.8M26.1 44.2C24.6 39.7 22.5 36.1 18.9 38.2M26.2 43.8C26.9 41.2 22.4 38.5 20.3 38.5M19.2 37.3C19.2 37.3 19.2 37.3 19.2 37.3M19.2 37.3C19.2 37.3 19.2 37.3 19.2 37.3"></path>
      <path class="rough-mask" stroke="none" d="M20.2 0C12.2 0 7.1 3.3 3 9.1c-0.7 1.1 -0.5 2.5 0.5 3.3l4.3 3.3c1 0.8 2.5 0.6 3.3 -0.4 2.5 -3.1 4.4 -4.9 8.3 -4.9 3.1 0 6.9 2 6.9 5 0 2.3 -1.9 3.4 -4.9 5.1 -3.5 2 -8.2 4.5 -8.2 10.6V32c0 1.3 1.1 2.4 2.4 2.4h7.2c1.3 0 2.4 -1.1 2.4 -2.4v-0.6c0 -4.3 12.5 -4.5 12.5 -16.1C37.8 6.6 28.7 0 20.2 0zM19.2 37.3c-3.8 0 -6.9 3.1 -6.9 6.9 0 3.8 3.1 6.9 6.9 6.9s6.9 -3.1 6.9 -6.9 -3.1 -6.9 -6.9 -6.9z"></path>
    </svg>