<svg id="rough_running" viewBox="0 0 42 52" xmlns="http://www.w3.org/2000/svg" width="150" height="150">
      <title>running</title>
      <style>
        path {
          stroke: #fff;
          fill: url(#hachure);
        }
      </style>
      
      <pattern id="hachure" x="0" y="0" width="60" height="60" patternUnits="userSpaceOnUse">
        <path style="stroke-opacity: 0.7; stroke-width: 0.4; fill: none; --darkreader-inline-fill:none;"
          d="M60 60C60 60 60 60 60 60M60 60C60 60 60 60 60 60M61.2 50C57.9 53.1 56.3 55.7 55.1 59.4M60.2 49.6C58.9 51.8 57.9 54 53.7 60.3M60.2 39.5C57.8 46.1 51.9 53.2 46.7 60.6M59 40.5C57.2 43.9 55.1 48.9 48.3 60.8M60.9 31.4C54.4 36.1 51.5 44.7 42.4 59.8M60.7 29.7C55.6 37.7 52.9 43.1 42.7 60.9M60.7 18.3C57.1 26.6 49.6 37.8 34.7 61.6M60.2 19.8C55.3 29.4 49.5 37.4 37.1 60.4M59.5 12.3C48.3 29.9 37 51 32.9 58.6M59.6 9.4C49.9 28.3 39.3 46.5 30.6 60M59.9 -1.3C49.3 18.4 41.2 33.2 25.7 60M59.2 0C50.4 18.9 39.2 36.5 26 59.5M57.1 -3.5C43.8 21.5 30.6 42.2 18.4 61.7M55 -1.9C46.7 15.4 36.3 31.2 20.3 59.4M48.6 -0.7C37.2 20.7 25.3 41.8 14.1 59.9M49.6 -1.4C42.1 11.8 33.9 27 13.4 59.3M43.3 -1.5C33.4 14.4 23.7 29.1 6.7 58.8M43.9 -1.6C33.7 16.2 23.4 32.2 8.3 60.6M36.3 -3.8C32.4 12 20.6 25 2 61.8M37.5 -1.4C27.7 17.6 17.3 34.9 3 59.7M32.8 -3.2C22.1 20.3 7.5 39 -3.8 60M32.7 -2.3C19.2 19.7 7.1 40.5 -2.3 58M27.5 -2C18.7 9.6 9.1 25.1 -4.1 47.2M26.1 -2.2C14.8 17.8 4.5 36.9 -3.3 49.2M23 -2.9C10.1 15.5 2.7 30.5 -3.1 39.1M20.8 -2.8C15.3 6.3 10.1 15.9 -2.7 39.3M15.7 -4.6C10.6 9.6 1.8 18.1 -0.7 26.8M15.7 -3.2C11.3 4.4 8.5 9.7 -2 28.3M9.2 -2.9C5 3.9 2.3 10.5 -3.2 16.6M9.5 -2.1C5.5 5.2 1 11.5 -3.3 18.5M4.4 -1.4C1.5 -0.1 0.8 4.6 -3.4 8.4M3.5 -2.3C2.3 1 0.2 3.9 -2.8 9.4"
          data-darkreader-inline-fill=""></path>
      </pattern>
      <path class="rough-outline" fill="none" d="M28.6 10.1M27.2 9.6C30.3 8.8 33 8.7 33.1 4.3M26.5 10.5C30.1 10.1 33.3 5.9 33 3M32 4.8C31.5 2.4 30.2 -1.2 27.4 0.3M32.5 5.6C32.5 2.8 30.2 -0.2 25.7 -1.2M27.2 0C23.3 -0.6 23.9 2.7 22.9 3.6M26.6 0.6C23.4 -1.4 20.7 0.9 24.1 3.3M22.4 4.8C22.4 7.4 25 9.6 26 10M22.8 4.4C23.6 7.4 24.2 9.4 25.4 7.8M27.2 9.6C27.2 9.6 27.2 9.6 27.2 9.6M27.2 9.6C27.2 9.6 27.2 9.6 27.2 9.6M12.8 30.1M11.7 31.5C10.7 32.9 10.5 33.9 10.2 35M11.3 31.8C10.7 33.1 10.1 34.7 9.8 35.1M9.6 34.9C8.1 35 5.7 35.3 3 35.2M9.9 35.3C8.4 35.4 6.4 35.4 3.3 35M3.2 35.2C0.3 34.3 1.2 36 -1.2 39.6M3.3 35.6C2.2 35.2 1.7 36.1 1.7 39.2M0 38.4C0.9 40.7 1.3 42.3 3.3 40.9M0.9 38.1C0.6 41.5 0.3 42.9 5 43.4M3.4 41.3C4.9 42.1 5.9 41.4 10.8 41.6M3.1 41.9C5.7 41.5 7.8 41.8 10.8 41.3M10.9 41.6C13.2 42 14.6 41.8 15.4 38.8M11.8 40.5C11.9 42.3 13.5 41 16.3 37.4M15.3 38.5C15.3 38.4 15.5 37.8 16.2 36.6M15.2 38.7C15.5 38.2 15.8 37.7 16.3 36.6M16.2 36.6C15.9 36.4 15.4 36.1 15.1 36.1M16.2 36.6C15.8 36.3 15.3 36.1 15.1 36M15.1 36C13.6 33.9 12.4 34.3 10.6 31M14.9 37.1C13.1 34.6 13.1 34.9 10.9 31.6M11.3 31.7C11.3 31.7 11.3 31.7 11.4 31.7M11.3 31.7C11.3 31.7 11.3 31.7 11.4 31.7M39.1 23.2M38.1 22.5C37.2 22.6 35.9 22.1 33.8 22.6M38.5 22.5C36.9 22.4 35.1 22.5 34.1 22.2M33.7 22.7C32.9 20.4 32.3 18.7 31.8 17.3M33.8 22.3C33.1 20.4 32 18.5 31.5 17.1M31.4 17.1C29.3 14.9 29 13.8 23.9 12.1M29.8 17C30.1 14 27.2 12.4 24.4 12M25.7 12.1C22.2 11.7 19.5 10.4 17.6 10M25.3 11.9C22.4 11.2 20.3 10.4 18.4 9.8M18.1 9.9C16.3 9.5 11.3 10.5 8.9 12M19 9.4C16.7 10.3 11 8.5 9.4 10.8M10.3 11.3C8.5 12.2 6.9 14 5.6 14.3M10 11.7C8.9 12.2 7.7 13.2 6.1 14.6M6 14.6C4.6 17.1 4.3 18.4 4.8 18.8M6.8 14.7C5.1 17.4 4.8 16.8 6.5 18.2M5.4 19.1C6.6 21.8 10 21.9 10.3 21M4.4 17.7C6.2 19.8 10.3 21.9 9 20.3M10.3 19.4C11.2 18.5 12.8 17.5 13.6 16.8M10.1 19.7C11 19 11.9 18.2 13.9 16.9M13.9 16.7C13.9 15.3 14.4 14.8 16.8 16.2M14.9 18.1C13.2 14.7 17.4 16.1 15.2 16.1M16.3 16C16.9 16.2 17.4 16.2 17.8 16.6M16.4 16.1C16.8 16.2 17.1 16.3 17.9 16.5M18 17.2C16.2 19.8 15.6 21.4 14 25M17.8 16.5C16.7 19.3 15 22.7 14.3 25.2M14.2 25.2C12.4 26.8 13.4 30.3 16.2 33.3M14 24.8C11.6 29.2 12.4 30.3 18.5 34.4M16.4 33.6C20.1 35.5 22 36.7 25.5 38.6M16.5 32.8C19.6 35.1 22.6 37.1 25.4 37.8M26 38.1C24.9 40.4 24.2 44 22.3 47.1M25.1 37.8C24.8 40.2 24 41.8 22.2 46.6M22.6 47C22 49 23 50.9 24.4 50M23.1 46.5C22.3 49.9 24.8 49.4 26 50.9M24.7 51C26.3 52.1 25.2 52.6 25.4 50.7M26.1 50.6C25.8 49.8 25.9 52.3 26.9 51.1M25.7 51.1C26.3 49.8 29.1 51.3 28.1 48.8M24.5 52.3C26.2 50.8 28.7 50.1 28.7 50.7M28 49.1C30 44.9 31.4 42 31.6 38.1M28.4 48.8C29.7 46.8 30.5 44.5 32.1 38.9M32 38.8C31.9 37.4 31.8 34.4 29.3 32.1M33.4 37.5C33.6 36 31.3 34.5 30.3 31.9M29.8 33.9C28.5 32.4 27.3 31.8 24.2 30.2M29.8 33.4C28.6 32.4 26.7 31.7 23.6 29.7M24 29.8C25 28.1 24.7 25.9 27 21.9M23.6 30C24.7 26.9 26.1 24 26.9 22M26.7 21.8C27.4 23.6 28.4 24.7 28.9 26.3M26.8 21.8C27.4 23.6 28.4 24.7 29 26M28.8 26.1C30.9 28.8 30.6 27.9 31.6 27.9M28.8 27.7C28.6 29.5 32.5 28.1 32.3 28.2M33.2 29C34.5 29.1 36 28.4 38.4 28.4M33 28.8C35 28.9 36.6 28.8 38.4 28.9M38.4 28.8C40.3 30.2 42.4 28.7 40 25.5M38.2 28.7C39 28.5 43.4 28.8 41.1 25.2M41.6 25.6C40.2 23.1 41.5 23 39.4 22M42 27C42.3 23.7 40.5 24.1 38.6 22.3M38.4 22.4C38.4 22.4 38.4 22.4 38.4 22.4M38.4 22.4C38.4 22.4 38.4 22.4 38.4 22.4"></path>
      <path class="rough-mask" stroke="none" d="M27.2 9.6c2.7 0 4.8 -2.1 4.8 -4.8S29.9 0 27.2 0s-4.8 2.1 -4.8 4.8 2.1 4.8 4.8 4.8zM11.4 31.7l-1.5 3.5H3.2c-1.8 0 -3.2 1.4 -3.2 3.2s1.4 3.2 3.2 3.2h7.7c1.9 0 3.7 -1.1 4.4 -2.9l0.9 -2.1 -1.1 -0.6c-1.7 -1 -3 -2.5 -3.8 -4.3zM38.4 22.4h-4.4l-2.6 -5.3c-1.3 -2.6 -3.5 -4.4 -6.2 -5.1l-7.1 -2.1c-2.8 -0.7 -5.8 -0.1 -8.1 1.7l-4 3c-1.4 1.1 -1.7 3.1 -0.6 4.5s3.1 1.7 4.5 0.6l4 -3c0.8 -0.6 1.7 -0.8 2.5 -0.6l1.5 0.4 -3.7 8.7c-1.3 2.9 -0.1 6.4 2.6 8l8.5 5 -2.7 8.8c-0.5 1.7 0.4 3.5 2.1 4 0.3 0.1 0.6 0.1 1 0.1 1.4 0 2.6 -0.9 3.1 -2.2l3.2 -10.1c0.6 -2.1 -0.3 -4.3 -2.2 -5.4l-6.1 -3.6 3.1 -7.8 2 4.1c0.8 1.6 2.5 2.7 4.3 2.7H38.4c1.8 0 3.2 -1.4 3.2 -3.2s-1.4 -3.2 -3.2 -3.2z"></path>
    </svg>