<svg id="rough_twitch" viewBox="0 0 52 52" xmlns="http://www.w3.org/2000/svg" width="150" height="150">
      <style>
        path {
          stroke: #fff;
          fill: url(#hachure);
        }
      </style>
      
      <pattern id="hachure" x="0" y="0" width="60" height="60" patternUnits="userSpaceOnUse">
        <path style="stroke-opacity: 0.7; stroke-width: 0.4; fill: none; --darkreader-inline-fill:none;"
          d="M60 60C60 60 60 60 60 60M60 60C60 60 60 60 60 60M61.2 50C57.9 53.1 56.3 55.7 55.1 59.4M60.2 49.6C58.9 51.8 57.9 54 53.7 60.3M60.2 39.5C57.8 46.1 51.9 53.2 46.7 60.6M59 40.5C57.2 43.9 55.1 48.9 48.3 60.8M60.9 31.4C54.4 36.1 51.5 44.7 42.4 59.8M60.7 29.7C55.6 37.7 52.9 43.1 42.7 60.9M60.7 18.3C57.1 26.6 49.6 37.8 34.7 61.6M60.2 19.8C55.3 29.4 49.5 37.4 37.1 60.4M59.5 12.3C48.3 29.9 37 51 32.9 58.6M59.6 9.4C49.9 28.3 39.3 46.5 30.6 60M59.9 -1.3C49.3 18.4 41.2 33.2 25.7 60M59.2 0C50.4 18.9 39.2 36.5 26 59.5M57.1 -3.5C43.8 21.5 30.6 42.2 18.4 61.7M55 -1.9C46.7 15.4 36.3 31.2 20.3 59.4M48.6 -0.7C37.2 20.7 25.3 41.8 14.1 59.9M49.6 -1.4C42.1 11.8 33.9 27 13.4 59.3M43.3 -1.5C33.4 14.4 23.7 29.1 6.7 58.8M43.9 -1.6C33.7 16.2 23.4 32.2 8.3 60.6M36.3 -3.8C32.4 12 20.6 25 2 61.8M37.5 -1.4C27.7 17.6 17.3 34.9 3 59.7M32.8 -3.2C22.1 20.3 7.5 39 -3.8 60M32.7 -2.3C19.2 19.7 7.1 40.5 -2.3 58M27.5 -2C18.7 9.6 9.1 25.1 -4.1 47.2M26.1 -2.2C14.8 17.8 4.5 36.9 -3.3 49.2M23 -2.9C10.1 15.5 2.7 30.5 -3.1 39.1M20.8 -2.8C15.3 6.3 10.1 15.9 -2.7 39.3M15.7 -4.6C10.6 9.6 1.8 18.1 -0.7 26.8M15.7 -3.2C11.3 4.4 8.5 9.7 -2 28.3M9.2 -2.9C5 3.9 2.3 10.5 -3.2 16.6M9.5 -2.1C5.5 5.2 1 11.5 -3.3 18.5M4.4 -1.4C1.5 -0.1 0.8 4.6 -3.4 8.4M3.5 -2.3C2.3 1 0.2 3.9 -2.8 9.4"
          data-darkreader-inline-fill=""></path>
      </pattern>
      <title>twitch</title>
      <path class="rough-outline" fill="none" d="M40.2 11.3M39 10.5C37.6 10.1 36.8 10.4 35.4 10.3M39.1 10.2C37.7 10.4 36.4 10.3 35.2 10.3M35.5 9.4C35.6 13.1 35.3 15 36.1 21.8M35 10.4C35.4 12.9 35.6 15.6 35.2 20.9M35.1 21.5C36.9 21.4 38.5 21.5 39.2 21M35.3 21.4C36 21.3 36.8 21.2 39.1 21.2M38.5 21.4C38.6 18.1 39.5 15.3 39.4 10.7M39.2 21.1C39.3 19.3 39.3 16.9 39.2 10.6M29 10.5M28.5 10.2C27.5 10.3 26.5 10 24.8 10.6M28.6 10.3C27.1 10.4 25.9 10.4 24.5 10.3M25.1 9.7C23.9 13.5 24 17 25.2 21.5M24.6 10.7C24.3 12.8 24.4 15 24.2 21.2M24.8 21.4C25.2 21.3 26.4 21.2 28.3 21.4M24.5 21.3C25.9 21.3 27.4 21.3 28.4 21.4M28.9 20.5C28 17.7 28.3 12.7 28.2 10.5M28.5 21.2C28.3 19 28.6 16.2 28.1 10.3M10.8 -1.4M12.9 0C9.1 3.7 6.2 7.1 2.8 8.3M12.5 -0.1C8.6 2.3 6.5 5.3 2.2 9.3M2.2 9.1C3.3 16.3 1.5 27 1.5 43.1M2.8 9.2C2.3 18.5 2.7 27.9 2.6 42.6M2.4 41.6C4.6 41.6 8.3 42.2 13.1 42.6M2.1 41.8C4.7 41.9 7.3 42.4 14.4 41.9M14.4 42C14.2 43.4 14.1 45.7 14.7 50.5M13.9 41.8C13.8 45.2 14.2 48.3 13.6 51M13.2 51.3C16.1 48.9 20.9 44.9 23.4 42.4M14 51.1C16.1 49.1 19.2 46.8 23.7 42.2M23.2 41.5C26.4 42.7 28.7 42.3 31.1 42.1M23.8 42.3C26 42.1 28.8 42.2 31.6 42.4M32.2 40.7C35.4 38 43.5 32.7 48.1 25.7M31.9 41.8C35.4 39.4 39.1 34.4 48.2 26.2M49.4 26.6C48.8 20.9 49.4 14 47.2 -1.3M49 26.4C48.4 16.6 49.6 7.8 48.2 0.1M47.8 -1.3C36.4 -0.7 23.1 -1.4 12.9 0.9M48.3 -0.6C40 0.6 32 0.6 11.9 0.5M45.1 24.8M45.6 24.2C44.1 25.1 41.1 27.2 37.5 31.4M44.5 23.6C42 26.7 39.4 29.4 36.8 31.5M36.7 31.5C33.8 31.4 31.1 31.7 29 31.6M37.3 31.2C34.7 31.3 32.7 31 29.3 31.2M29.2 31.1C27.3 32.8 24 35.4 23.2 37.5M29.5 31.2C26.8 33.5 24.4 35.5 22.8 37.9M22.3 37.4C23.2 35.8 23.2 33.7 22.5 31.5M22.9 37.3C22.6 35.4 22.5 33.6 22.6 31.3M23 31.7C20.7 30.6 19.1 31.2 14.4 30.4M22.5 31.2C20.4 31 18.1 30.8 14.3 31M15.5 30.7C13.4 21.8 13 13.1 14.2 4.9M13.3 31C14.8 21.5 13.8 11.6 14.5 3.6M13.6 2.3C22.4 4.8 32.9 4.7 45.2 2.8M14.1 3C21.8 3.7 28.1 4.2 45.2 3M45.2 2.3C45.8 8.7 44.7 15.5 44.2 22.3M44.5 3.5C45.3 10.4 45.5 16.1 45.1 23.9"></path>
      <path class="rough-mask" stroke="none" d="M39.1 10.3H35.3v11h3.9ZM28.5 10.3H24.6V21.3H28.5ZM12.1 0 2.4 9.1V42.1H14V51.2l9.7 -9.1h7.7L48.8 25.6V0ZM44.9 23.8l-7.7 7.3H29.5l-6.8 6.4v-6.4H14V3.7H44.9Z"></path>
    </svg>