<svg xmlns="http://www.w3.org/2000/svg" id="rough_twitter" viewBox="0 0 45 52" width="150" height="150">
      <style>
        path {
          stroke: #fff;
          fill: url(#hachure);
        }
      </style>

      <pattern id="hachure" x="0" y="0" width="60" height="60" patternUnits="userSpaceOnUse">
        <path style="stroke-opacity: 0.7; stroke-width: 0.4; fill: none; --darkreader-inline-fill:none;"
          d="M60 60C60 60 60 60 60 60M60 60C60 60 60 60 60 60M61.2 50C57.9 53.1 56.3 55.7 55.1 59.4M60.2 49.6C58.9 51.8 57.9 54 53.7 60.3M60.2 39.5C57.8 46.1 51.9 53.2 46.7 60.6M59 40.5C57.2 43.9 55.1 48.9 48.3 60.8M60.9 31.4C54.4 36.1 51.5 44.7 42.4 59.8M60.7 29.7C55.6 37.7 52.9 43.1 42.7 60.9M60.7 18.3C57.1 26.6 49.6 37.8 34.7 61.6M60.2 19.8C55.3 29.4 49.5 37.4 37.1 60.4M59.5 12.3C48.3 29.9 37 51 32.9 58.6M59.6 9.4C49.9 28.3 39.3 46.5 30.6 60M59.9 -1.3C49.3 18.4 41.2 33.2 25.7 60M59.2 0C50.4 18.9 39.2 36.5 26 59.5M57.1 -3.5C43.8 21.5 30.6 42.2 18.4 61.7M55 -1.9C46.7 15.4 36.3 31.2 20.3 59.4M48.6 -0.7C37.2 20.7 25.3 41.8 14.1 59.9M49.6 -1.4C42.1 11.8 33.9 27 13.4 59.3M43.3 -1.5C33.4 14.4 23.7 29.1 6.7 58.8M43.9 -1.6C33.7 16.2 23.4 32.2 8.3 60.6M36.3 -3.8C32.4 12 20.6 25 2 61.8M37.5 -1.4C27.7 17.6 17.3 34.9 3 59.7M32.8 -3.2C22.1 20.3 7.5 39 -3.8 60M32.7 -2.3C19.2 19.7 7.1 40.5 -2.3 58M27.5 -2C18.7 9.6 9.1 25.1 -4.1 47.2M26.1 -2.2C14.8 17.8 4.5 36.9 -3.3 49.2M23 -2.9C10.1 15.5 2.7 30.5 -3.1 39.1M20.8 -2.8C15.3 6.3 10.1 15.9 -2.7 39.3M15.7 -4.6C10.6 9.6 1.8 18.1 -0.7 26.8M15.7 -3.2C11.3 4.4 8.5 9.7 -2 28.3M9.2 -2.9C5 3.9 2.3 10.5 -3.2 16.6M9.5 -2.1C5.5 5.2 1 11.5 -3.3 18.5M4.4 -1.4C1.5 -0.1 0.8 4.6 -3.4 8.4M3.5 -2.3C2.3 1 0.2 3.9 -2.8 9.4"
          data-darkreader-inline-fill=""></path>
      </pattern>
      <title>twitter</title>
      <path class="rough-outline" fill="none"
        d="M46.4 15.2M45.9 15.2C44.8 14.3 45.1 16 45.5 17.6M46.4 15.9C44.8 17.2 45.2 17.8 45.6 18.1M45.9 16.6C44.8 29.4 34.1 46 16.1 46.6M47 15.5C44.7 31.7 36.9 48.1 15.6 45.5M16 46.5C10.3 47.5 5.9 44.9 1 43.2M15.3 45.3C10.4 46.9 5 46.4 1.3 41.4M-0.1 41.8C0.9 42 1.1 41.5 3.1 42.1M0.4 41.5C-0.5 43.3 1.2 40.5 3.1 42.9M2.4 41.9C7.1 41.2 12.4 41.4 14.7 36.7M0.9 40.5C8.6 41.4 11.4 40.2 16.8 38.4M15.4 37.4C11.7 36.8 7.7 32.9 6.6 28.9M15.5 37.4C9.4 37.2 6.6 32.9 6.6 29.1M5.6 30.1C5.7 31.4 6.9 30.9 6.2 29.4M4.4 29.8C6.2 29.6 7.3 32.1 7.4 31.9M7.6 30.3C8.6 29.4 8.3 30.3 9 30.7M6.6 31.6C9.8 30.2 8.5 32 10.2 29M10.4 29.9C4.1 27.3 3.3 25.8 1.7 18.3M11 31.1C7.2 27.2 1.8 26 0.4 18.1M2 19.6C2 19.6 2 19.6 2 19.5M2 19.6C2 19.6 2 19.5 2 19.5M2 19.5C3.7 20.2 6 21.3 6.2 20.5M2.6 20.2C2.4 22.1 5.1 22.1 7 22.3M6.7 20.8C5.4 20.5 1.1 16.5 3.5 13.2M5.6 19.3C2.1 17.4 1 16.2 1.1 10.4M2 12.1C1.6 11.6 3.8 9.7 4.4 6.1M1.8 11.3C0.8 8.9 2.3 7.7 2.8 6.5M3.4 6.8C9.6 13.5 17.2 17.5 24.2 17.5M2.7 7.4C9.6 13.7 17.5 16 24 17.8M25 17.8C24.1 18.2 26.2 15.3 25.2 13.9M25.4 18.6C25.2 15.8 23.9 15.7 26.3 14M24.7 15.4C25.2 8.7 28.6 5.8 35.7 4.8M26.1 15.2C23.8 11.2 29.9 6.6 36 3.8M35.2 4.9C37.7 3.8 39.5 7 43.7 9.2M33.8 4.1C38.8 5.1 39.2 6.7 43.9 9.3M42.9 8.2C46.6 6.8 48.9 5.8 48.7 6.4M43.2 7.5C44.2 8.1 47.2 6 47.9 4.5M49.6 5.7C50.2 7.5 47.4 11.1 43.5 12.9M49.2 6.4C47.7 6.5 46.9 9.1 45.1 11.5M45 11.5C46 10.4 48.4 11.5 50.4 9.3M45.7 11.7C45.8 11.8 47.5 10.6 52.3 9.8M51 9.9C48.9 11.5 48.3 13.3 44.4 14.9M50.6 10.7C50.8 11.2 48.6 12.8 45.5 14.2M45.7 15.3C45.7 15.3 45.8 15.2 45.9 15.2M45.7 15.3C45.8 15.3 45.8 15.2 45.9 15.2">
      </path>
      <path class="rough-mask" stroke="none"
        d="M45.9 15.2c0 0.5 0 0.9 0 1.4 0 13.9 -10.6 29.9 -29.9 29.9 -5.9 0 -11.5 -1.7 -16.1 -4.7 0.8 0.1 1.7 0.1 2.5 0.1 4.9 0 9.4 -1.7 13 -4.5 -4.6 -0.1 -8.5 -3.1 -9.8 -7.3 0.6 0.1 1.3 0.2 2 0.2 0.9 0 1.9 -0.1 2.8 -0.4 -4.8 -1 -8.4 -5.2 -8.4 -10.3v-0.1c1.4 0.8 3 1.3 4.7 1.3 -2.8 -1.9 -4.7 -5.1 -4.7 -8.7 0 -1.9 0.5 -3.7 1.4 -5.3 5.2 6.4 12.9 10.5 21.6 11 -0.2 -0.8 -0.3 -1.6 -0.3 -2.4 0 -5.8 4.7 -10.5 10.5 -10.5 3 0 5.8 1.3 7.7 3.3 2.4 -0.5 4.6 -1.3 6.7 -2.5 -0.8 2.4 -2.4 4.5 -4.6 5.8 2.1 -0.2 4.2 -0.8 6 -1.6 -1.4 2.1 -3.2 3.9 -5.3 5.4z">
      </path>
    </svg>